<?xml version="1.0" encoding="utf-8"?><!DOCTYPE svg PUBLIC "-//W3C//DTD SVG 1.1//EN" "http://www.w3.org/Graphics/SVG/1.1/DTD/svg11.dtd"><svg xmlns="http://www.w3.org/2000/svg" width="600" height="600" viewBox="0 0 65 65" shape-rendering="crispEdges"><path fill="#ffffff" d="M0 0h65v65H0z"/><path stroke="#222525" d="M0 0.5h7m3 0h1m3 0h2m1 0h2m2 0h1m1 0h4m2 0h1m5 0h1m3 0h1m3 0h1m3 0h1m3 0h2m2 0h1m2 0h7M0 1.5h1m5 0h1m1 0h1m2 0h3m3 0h2m4 0h1m3 0h1m3 0h1m3 0h1m3 0h2m1 0h3m2 0h1m1 0h1m1 0h1m1 0h1m2 0h1m1 0h1m5 0h1M0 2.5h1m1 0h3m1 0h1m1 0h2m1 0h2m3 0h2m4 0h1m2 0h1m2 0h1m2 0h1m4 0h1m2 0h1m2 0h1m5 0h1m2 0h2m1 0h1m1 0h1m1 0h1m1 0h3m1 0h1M0 3.5h1m1 0h3m1 0h1m1 0h2m3 0h1m1 0h1m1 0h1m2 0h3m3 0h1m1 0h1m1 0h1m1 0h2m2 0h1m1 0h4m1 0h4m1 0h1m1 0h6m2 0h1m1 0h3m1 0h1M0 4.5h1m1 0h3m1 0h1m3 0h2m1 0h2m3 0h5m2 0h1m2 0h1m1 0h5m3 0h1m1 0h1m2 0h1m1 0h1m4 0h1m1 0h1m3 0h1m1 0h1m1 0h3m1 0h1M0 5.5h1m5 0h1m2 0h4m3 0h1m2 0h1m1 0h5m2 0h1m1 0h1m3 0h2m2 0h2m5 0h4m1 0h2m2 0h1m3 0h1m5 0h1M0 6.5h7m1 0h1m1 0h1m1 0h1m1 0h1m1 0h1m1 0h1m1 0h1m1 0h1m1 0h1m1 0h1m1 0h1m1 0h1m1 0h1m1 0h1m1 0h1m1 0h1m1 0h1m1 0h1m1 0h1m1 0h1m1 0h1m1 0h1m1 0h1m1 0h1m1 0h1m1 0h7M8 7.5h2m1 0h1m1 0h2m2 0h2m1 0h2m2 0h1m1 0h2m1 0h2m3 0h1m1 0h1m3 0h6m2 0h2m3 0h3M0 8.5h1m5 0h1m1 0h2m2 0h3m1 0h3m2 0h1m3 0h1m1 0h2m1 0h5m1 0h1m2 0h3m1 0h1m1 0h6m3 0h5m2 0h3M3 9.5h2m2 0h1m2 0h2m1 0h1m4 0h1m1 0h1m2 0h4m1 0h1m2 0h4m1 0h1m5 0h1m1 0h1m1 0h2m1 0h3m1 0h4m1 0h1m1 0h3M5 10.5h5m1 0h2m1 0h3m1 0h2m4 0h2m1 0h1m1 0h1m3 0h1m1 0h2m1 0h1m1 0h1m3 0h1m2 0h1m8 0h2m1 0h2m1 0h1M0 11.5h2m1 0h3m2 0h1m1 0h4m2 0h2m1 0h1m1 0h2m2 0h1m2 0h3m1 0h3m1 0h3m3 0h5m2 0h1m2 0h3m1 0h1m2 0h1m1 0h4M3 12.5h2m1 0h2m2 0h2m2 0h1m3 0h9m7 0h4m1 0h4m2 0h2m1 0h1m1 0h1m1 0h5m2 0h1m1 0h2m1 0h1M0 13.5h2m2 0h1m2 0h3m2 0h3m1 0h1m1 0h3m3 0h1m2 0h1m1 0h3m1 0h1m1 0h3m1 0h5m5 0h1m4 0h1m2 0h1m2 0h3m1 0h1M2 14.5h3m1 0h1m1 0h2m1 0h3m3 0h1m1 0h2m1 0h2m1 0h1m2 0h1m1 0h2m2 0h1m2 0h1m8 0h1m1 0h1m2 0h1m4 0h1m1 0h1m2 0h1M0 15.5h2m1 0h1m1 0h1m2 0h2m5 0h2m1 0h1m1 0h1m2 0h4m2 0h2m1 0h2m3 0h1m3 0h1m8 0h2m2 0h1m3 0h1m1 0h1m1 0h1m1 0h1M2 16.5h2m2 0h2m2 0h2m4 0h1m1 0h1m2 0h3m3 0h2m1 0h7m1 0h1m2 0h1m1 0h1m1 0h1m1 0h2m1 0h1m3 0h1m1 0h1m1 0h1m1 0h1m2 0h1M0 17.5h1m2 0h2m2 0h1m1 0h1m1 0h1m1 0h1m1 0h3m2 0h4m1 0h3m2 0h2m1 0h1m3 0h1m1 0h4m2 0h1m3 0h1m3 0h4m1 0h1m2 0h1M0 18.5h2m1 0h1m2 0h1m1 0h6m1 0h1m4 0h1m1 0h3m1 0h5m1 0h3m2 0h1m3 0h2m2 0h1m1 0h1m1 0h1m1 0h3m1 0h1m8 0h1M3 19.5h3m1 0h1m3 0h1m4 0h1m2 0h1m1 0h1m8 0h1m3 0h1m1 0h2m5 0h3m2 0h2m6 0h1m3 0h5M0 20.5h2m3 0h6m1 0h1m4 0h1m1 0h1m1 0h1m1 0h1m1 0h1m2 0h1m1 0h1m1 0h2m1 0h2m4 0h3m3 0h3m3 0h1m1 0h3m1 0h4M0 21.5h3m1 0h2m1 0h2m1 0h1m1 0h1m1 0h1m1 0h1m4 0h1m3 0h1m1 0h4m1 0h3m4 0h2m1 0h7m1 0h1m2 0h2m1 0h4m1 0h4M1 22.5h1m3 0h4m1 0h3m1 0h1m1 0h2m2 0h2m1 0h2m1 0h2m1 0h1m4 0h1m1 0h1m2 0h2m1 0h1m1 0h3m2 0h5m1 0h2m2 0h2m1 0h3M0 23.5h3m2 0h1m1 0h2m1 0h2m1 0h3m5 0h1m1 0h1m4 0h4m4 0h8m1 0h2m2 0h1m1 0h2m3 0h1m1 0h2m1 0h3M0 24.5h1m2 0h1m1 0h3m1 0h2m1 0h2m1 0h1m2 0h4m1 0h1m1 0h1m1 0h1m1 0h1m2 0h3m1 0h2m1 0h4m1 0h1m1 0h2m3 0h2m1 0h1m4 0h3m1 0h2M2 25.5h1m5 0h1m2 0h1m1 0h1m2 0h1m1 0h4m1 0h1m3 0h1m1 0h2m1 0h2m1 0h2m1 0h1m1 0h1m1 0h1m1 0h1m2 0h1m1 0h1m1 0h1m1 0h1m1 0h1m1 0h1m1 0h1m1 0h1m1 0h1M0 26.5h2m4 0h1m5 0h2m1 0h3m3 0h7m1 0h2m1 0h1m1 0h1m1 0h1m6 0h1m1 0h4m1 0h1m4 0h1m2 0h1M2 27.5h1m1 0h1m3 0h2m1 0h2m3 0h1m9 0h4m1 0h1m1 0h3m1 0h1m2 0h1m4 0h2m2 0h5m3 0h1m2 0h3M2 28.5h2m1 0h2m1 0h4m3 0h1m3 0h3m1 0h2m1 0h2m5 0h2m1 0h2m1 0h1m3 0h2m1 0h1m1 0h1m1 0h2m2 0h3m1 0h1m1 0h1M0 29.5h1m3 0h1m8 0h1m1 0h3m2 0h6m1 0h3m3 0h1m1 0h2m2 0h2m4 0h1m1 0h3m1 0h2m2 0h1m1 0h1m2 0h3m1 0h1M1 30.5h1m1 0h9m4 0h1m2 0h1m2 0h1m4 0h1m2 0h5m1 0h6m2 0h2m2 0h6m1 0h6m3 0h1M2 31.5h1m1 0h1m3 0h3m2 0h1m3 0h1m3 0h2m1 0h1m2 0h2m1 0h1m3 0h3m2 0h1m2 0h2m3 0h2m2 0h6m3 0h2m1 0h1M1 32.5h2m1 0h1m1 0h1m1 0h3m1 0h1m1 0h1m3 0h1m1 0h1m3 0h1m2 0h4m1 0h1m1 0h1m1 0h2m1 0h1m1 0h2m5 0h1m4 0h4m1 0h1m1 0h2m1 0h1M1 33.5h4m3 0h5m1 0h4m1 0h3m1 0h1m3 0h1m1 0h2m3 0h3m1 0h3m1 0h3m1 0h3m1 0h2m4 0h1m3 0h3m1 0h1M1 34.5h10m3 0h3m1 0h2m2 0h2m1 0h2m3 0h5m1 0h2m1 0h1m1 0h2m5 0h1m7 0h6m2 0h1M0 35.5h2m2 0h2m2 0h1m1 0h1m2 0h1m4 0h1m1 0h1m2 0h1m2 0h3m1 0h2m2 0h1m1 0h2m4 0h1m1 0h2m2 0h2m3 0h1m1 0h1m1 0h1m1 0h2m2 0h1M1 36.5h3m1 0h2m4 0h4m2 0h2m1 0h3m8 0h1m3 0h1m1 0h3m3 0h1m1 0h4m1 0h2m2 0h1m1 0h1m7 0h1M2 37.5h1m1 0h1m3 0h1m1 0h1m1 0h1m1 0h1m1 0h3m3 0h3m2 0h1m2 0h2m2 0h1m2 0h3m2 0h1m1 0h1m1 0h1m2 0h1m2 0h3m6 0h4M1 38.5h1m4 0h1m2 0h3m4 0h1m4 0h1m1 0h1m1 0h3m2 0h3m2 0h1m2 0h4m2 0h1m2 0h2m1 0h1m1 0h1m1 0h1m1 0h4m2 0h1M1 39.5h3m1 0h1m1 0h1m1 0h1m4 0h2m3 0h1m1 0h1m1 0h1m2 0h1m2 0h1m1 0h1m6 0h1m1 0h5m1 0h1m2 0h2m2 0h3m4 0h1m3 0h1M0 40.5h1m1 0h1m3 0h4m1 0h1m1 0h1m6 0h2m1 0h2m1 0h2m1 0h5m2 0h1m1 0h2m5 0h4m1 0h1m3 0h1m2 0h1m2 0h1m2 0h2M2 41.5h1m1 0h2m2 0h2m1 0h1m1 0h6m1 0h3m4 0h1m1 0h2m2 0h1m2 0h1m4 0h3m6 0h2m1 0h1m1 0h2m1 0h5M0 42.5h1m2 0h2m1 0h3m5 0h2m2 0h3m4 0h2m1 0h4m1 0h2m2 0h2m1 0h1m1 0h1m2 0h3m2 0h2m1 0h1m2 0h3m1 0h1m1 0h1m1 0h1M2 43.5h2m4 0h2m1 0h8m1 0h1m1 0h1m2 0h1m5 0h1m1 0h1m1 0h3m1 0h1m1 0h2m1 0h1m1 0h2m1 0h5m1 0h2m1 0h1m1 0h1m1 0h1m1 0h1M0 44.5h1m1 0h9m1 0h1m1 0h3m2 0h1m3 0h2m3 0h1m12 0h2m3 0h4m7 0h1m2 0h1m2 0h2M8 45.5h1m3 0h6m1 0h4m1 0h3m1 0h1m1 0h2m4 0h3m3 0h1m1 0h3m1 0h5m1 0h1m4 0h3m1 0h1M3 46.5h1m1 0h3m2 0h3m1 0h2m1 0h1m1 0h3m1 0h5m1 0h1m2 0h5m3 0h2m4 0h1m1 0h1m2 0h3m5 0h2m1 0h1M3 47.5h3m2 0h1m1 0h2m1 0h1m1 0h1m3 0h1m2 0h1m1 0h5m2 0h3m6 0h1m1 0h1m1 0h2m1 0h1m1 0h1m1 0h7m2 0h1m1 0h2M3 48.5h1m2 0h1m3 0h1m1 0h1m5 0h1m4 0h3m3 0h1m1 0h2m2 0h2m1 0h1m1 0h3m1 0h1m1 0h3m1 0h1m1 0h1m1 0h2m1 0h1m2 0h2m1 0h1M2 49.5h1m2 0h1m1 0h1m2 0h1m3 0h1m2 0h1m1 0h3m3 0h1m1 0h1m3 0h1m2 0h1m1 0h2m1 0h1m1 0h2m2 0h1m3 0h1m1 0h1m2 0h3m1 0h1m2 0h1m1 0h1M0 50.5h2m1 0h2m1 0h1m1 0h6m1 0h1m1 0h1m7 0h2m4 0h3m1 0h2m1 0h1m1 0h1m2 0h6m1 0h1m1 0h2m4 0h4M0 51.5h1m3 0h1m2 0h1m2 0h1m7 0h1m7 0h1m2 0h5m1 0h4m1 0h4m1 0h2m1 0h2m2 0h6m1 0h1m1 0h4M0 52.5h1m2 0h1m1 0h2m2 0h2m1 0h1m3 0h1m4 0h3m1 0h6m4 0h2m5 0h2m1 0h5m1 0h1m2 0h4m3 0h2m1 0h1M3 53.5h2m5 0h1m1 0h1m1 0h4m2 0h2m1 0h3m1 0h1m2 0h2m1 0h1m1 0h3m1 0h1m1 0h2m4 0h3m1 0h8m1 0h2m1 0h1M2 54.5h2m1 0h2m3 0h1m5 0h1m1 0h4m1 0h2m1 0h1m2 0h3m2 0h1m1 0h3m2 0h1m2 0h2m1 0h2m2 0h1m3 0h3m3 0h1m2 0h1M0 55.5h1m2 0h1m3 0h1m4 0h1m1 0h1m3 0h1m1 0h3m1 0h1m3 0h4m1 0h1m1 0h1m1 0h2m1 0h2m2 0h4m1 0h1m2 0h1m3 0h4m3 0h1M1 56.5h2m1 0h1m1 0h3m4 0h1m1 0h2m2 0h2m1 0h2m1 0h2m1 0h1m1 0h7m3 0h1m2 0h1m4 0h5m3 0h9M8 57.5h3m4 0h2m1 0h1m2 0h1m3 0h2m3 0h1m3 0h1m2 0h2m5 0h1m4 0h3m1 0h2m1 0h1m3 0h1m1 0h1M0 58.5h7m2 0h2m10 0h1m3 0h2m1 0h1m1 0h1m1 0h1m1 0h1m1 0h1m1 0h1m3 0h2m1 0h1m1 0h2m1 0h2m2 0h3m1 0h1m1 0h2m1 0h1M0 59.5h1m5 0h1m3 0h2m4 0h1m2 0h1m1 0h1m1 0h3m3 0h2m3 0h1m2 0h2m1 0h1m2 0h2m1 0h4m3 0h1m2 0h1m3 0h2m1 0h2M0 60.5h1m1 0h3m1 0h1m2 0h4m2 0h1m1 0h2m3 0h5m1 0h1m1 0h6m1 0h1m3 0h1m4 0h1m1 0h2m1 0h3m1 0h8m1 0h1M0 61.5h1m1 0h3m1 0h1m2 0h2m1 0h3m3 0h1m1 0h1m3 0h1m1 0h1m2 0h1m3 0h1m1 0h1m2 0h1m1 0h3m5 0h1m4 0h4m2 0h2M0 62.5h1m1 0h3m1 0h1m3 0h3m2 0h2m1 0h1m2 0h2m1 0h2m3 0h1m2 0h1m3 0h1m2 0h1m2 0h2m1 0h1m1 0h2m1 0h2m3 0h1m2 0h3m1 0h2M0 63.5h1m5 0h1m2 0h1m3 0h1m2 0h1m1 0h1m3 0h1m2 0h1m2 0h3m3 0h1m1 0h2m2 0h2m2 0h2m2 0h2m3 0h1m2 0h7M0 64.5h7m1 0h1m1 0h2m2 0h1m2 0h1m1 0h3m2 0h5m4 0h1m1 0h1m2 0h1m1 0h1m2 0h5m2 0h1m1 0h2m1 0h1m1 0h3m3 0h1"/></svg>
