<svg width="124" height="48" viewBox="0 0 124 48" fill="none" xmlns="http://www.w3.org/2000/svg">
<g clip-path="url(#clip0_0_65)">
<path fill-rule="evenodd" clip-rule="evenodd" d="M0 20.8096C0 9.32112 9.35619 0.0151563 20.899 0V7.51752C13.5314 7.53268 7.56571 13.4739 7.56571 20.8096C7.56571 28.1452 13.5467 34.1017 20.9295 34.1017C28.3124 34.1017 34.2933 28.2059 34.2933 20.7641H41.8514C41.8514 32.3057 32.4876 41.6192 20.9295 41.6192C9.37143 41.6192 0 32.2981 0 20.8096Z" fill="#006648"/>
<path d="M11.6951 20.8096C11.6951 15.7095 15.8475 11.5794 20.9751 11.5794C26.1027 11.5794 30.2551 15.7095 30.2551 20.8096C30.2551 25.9097 26.1027 30.0398 20.9751 30.0398C15.8475 30.0398 11.6951 25.9097 11.6951 20.8096Z" fill="#52AE30"/>
<path d="M27.4064 9.11644C27.4064 6.19128 29.7912 3.8269 32.7245 3.8269C35.6578 3.8269 38.0426 6.19886 38.0426 9.11644C38.0426 12.034 35.6578 14.406 32.7245 14.406C29.7912 14.406 27.4064 12.034 27.4064 9.11644Z" fill="#006648"/>
<path d="M92.1906 28.0468L102.743 16.7023V11.5719H84.3049V16.8842H93.9811C94.3087 16.8842 94.484 17.2782 94.263 17.5207L84.0306 28.6303V34.0335H102.934V28.6758H92.4726C92.1373 28.6758 91.9697 28.2817 92.1906 28.0392V28.0468Z" fill="#52AE30"/>
<path d="M113.54 28.6833C113.205 28.6833 113.037 28.2893 113.258 28.0468L123.81 16.7023V11.5719H105.372V16.8842H115.048C115.384 16.8842 115.551 17.2782 115.33 17.5207L105.098 28.6303V34.0335H124.001V28.6758H113.54V28.6833Z" fill="#52AE30"/>
<path d="M76.214 27.9254V11.5793H61.0064C60.5873 11.5793 60.2445 11.2383 60.2445 10.8215V9.94247C60.2445 7.40379 62.1035 6.80511 63.4521 6.80511H66.8273V0.848688H62.3397C57.2807 0.848688 54.0273 4.1755 54.0273 9.29832V10.814C54.0273 11.2308 53.6845 11.5718 53.2654 11.5718H50.2178V16.8386H53.2654C53.6845 16.8386 54.0273 17.1796 54.0273 17.5964V34.0334H60.2521V17.5964C60.2521 17.1796 60.5949 16.8386 61.014 16.8386H69.3264C69.7454 16.8386 70.0883 17.1796 70.0883 17.5964V27.9178C70.0883 28.3346 69.7454 28.6757 69.3264 28.6757H64.4426V34.0334H81.8673V28.6757H76.9835C76.5645 28.6757 76.2216 28.3346 76.2216 27.9178L76.214 27.9254Z" fill="#52AE30"/>
<path d="M73.3571 7.47963C75.4371 7.47963 77.1209 5.80486 77.1209 3.73602C77.1209 1.66719 75.4295 -5.72205e-06 73.3571 -5.72205e-06C71.2771 -5.72205e-06 69.5933 1.67477 69.5933 3.7436C69.5933 5.81243 71.2771 7.48721 73.3571 7.48721V7.47963Z" fill="#52AE30"/>
<path fill-rule="evenodd" clip-rule="evenodd" d="M71.9856 42.2937L71.3836 44.9384C71.1932 45.09 71.0713 45.1961 70.7589 45.2795C70.637 45.3098 70.5151 45.3249 70.3932 45.3249C70.1875 45.3249 69.4789 45.2491 69.4789 44.2791C69.4789 43.7638 69.7227 43.2182 69.9665 42.9227C70.4846 42.3012 71.2008 42.2937 71.7798 42.2861H71.9932L71.9856 42.2937ZM72.9532 41.6495L71.8103 41.6647C70.8656 41.6798 69.7075 41.7026 68.976 42.9681C68.7627 43.3243 68.5875 43.832 68.5875 44.4004C68.5875 45.431 69.2579 45.9615 70.0656 45.9615C70.6294 45.9615 70.9189 45.7796 71.2541 45.5902L71.1475 46.0145C71.0332 46.4768 70.8275 47.318 69.8065 47.318C69.0446 47.318 68.7017 46.9239 68.5341 46.742H68.4732L68.1379 47.2498V47.3256C68.3056 47.4695 68.4198 47.5832 68.6256 47.6817C68.9532 47.8409 69.4103 47.9318 69.837 47.9318C70.4313 47.9318 71.0484 47.7802 71.4446 47.318C71.8027 46.9012 71.9322 46.3328 72.1303 45.4462L72.3665 44.3625C72.6484 43.0742 72.7246 42.7484 72.9836 41.7177L72.9532 41.6495Z" fill="#006648"/>
<path fill-rule="evenodd" clip-rule="evenodd" d="M74.2481 45.0597L74.4157 44.2564C74.5986 43.4531 74.7205 42.9833 74.9871 42.7105C75.1395 42.5513 75.33 42.4301 75.5509 42.4301C75.6881 42.4301 75.7795 42.4831 75.8938 42.5438L75.9776 42.521L76.29 41.7253L76.2671 41.6495C76.13 41.5965 76.0233 41.551 75.8938 41.551C75.6424 41.551 75.3148 41.7102 75.0481 42.0436C74.9643 42.1421 74.9033 42.2482 74.8348 42.3619L75.0176 41.6495L74.9795 41.5965C74.5909 41.6798 74.4995 41.6874 74.0957 41.7329L74.0424 41.7935C73.9128 42.6347 73.8824 42.8469 73.6386 43.8927L73.4633 44.6581L73.1662 45.8403L73.2043 45.8857L74.05 45.8706L74.1109 45.8175L74.2557 45.0597H74.2481Z" fill="#006648"/>
<path fill-rule="evenodd" clip-rule="evenodd" d="M79.2769 43.8169C79.1321 44.4838 78.8045 45.3704 77.9359 45.3704C77.494 45.3704 77.1054 45.0901 77.1054 44.4383C77.1054 44.1352 77.2654 42.1649 78.5454 42.1649C78.8502 42.1649 79.3759 42.3013 79.3759 43.1197C79.3759 43.3471 79.3378 43.582 79.2769 43.8169ZM80.1226 44.067C80.1988 43.7866 80.2445 43.4911 80.2445 43.2031C80.2445 42.1573 79.6121 41.5662 78.5454 41.5662C76.7702 41.5662 76.2369 43.3168 76.2369 44.3095C76.2369 45.4083 76.8312 45.9691 77.9131 45.9691C79.4445 45.9691 79.9397 44.7642 80.1226 44.067Z" fill="#006648"/>
<path fill-rule="evenodd" clip-rule="evenodd" d="M84.4808 44.5671L84.6789 43.6804L85.1513 41.6874L85.1208 41.6343L84.2979 41.6722L84.2294 41.7328C84.1227 42.3239 84.0922 42.4907 83.8865 43.4304L83.5741 44.8096C83.3608 44.9839 83.0027 45.2794 82.4694 45.2794C82.2713 45.2794 81.7913 45.1961 81.7913 44.605C81.7913 44.3397 81.9284 43.7259 81.9817 43.5213C82.0198 43.3697 82.3627 41.9754 82.4313 41.695L82.3932 41.6419L81.5779 41.6722L81.517 41.7328C81.4332 42.1724 81.4179 42.2785 81.2884 42.8241L81.0979 43.6198C80.9684 44.2109 80.8922 44.5216 80.8922 44.8475C80.8922 45.7038 81.5703 45.9615 82.0884 45.9615C82.5227 45.9615 83.0713 45.7644 83.4294 45.4461L83.3303 45.8402L83.376 45.8933L84.176 45.8629L84.2294 45.8099L84.4732 44.5595L84.4808 44.5671Z" fill="#006648"/>
<path fill-rule="evenodd" clip-rule="evenodd" d="M86.9793 42.665C87.1012 42.5513 87.4212 42.2634 87.9317 42.2634C88.3812 42.2634 88.8612 42.5362 88.8612 43.3016C88.8612 44.2489 88.1145 45.2719 86.7203 45.2719C86.5984 45.2719 86.4993 45.2567 86.385 45.2492L86.9793 42.665ZM87.2003 41.6495L87.1622 41.5965L86.2936 41.7329L86.2326 41.7784C86.1717 42.1876 86.126 42.468 85.9812 43.1879C85.8365 43.8851 85.6688 44.5899 85.5165 45.2795L85.3565 45.9236L84.9069 47.7727L84.9526 47.8182H85.806L85.8669 47.7727C86.0422 46.7875 86.0879 46.6057 86.2555 45.8706C86.4079 45.8706 86.5755 45.8706 86.7279 45.8706C87.1622 45.8706 88.3965 45.8706 89.2117 44.8248C89.5469 44.3928 89.7603 43.7866 89.7603 43.2031C89.7603 42.1724 89.0745 41.5889 88.2898 41.5889C87.7793 41.5889 87.4365 41.7935 87.1241 41.983L87.2079 41.6495H87.2003Z" fill="#006648"/>
<path fill-rule="evenodd" clip-rule="evenodd" d="M56.8537 43.8624C56.6937 44.5899 56.5185 44.7945 56.4271 44.9081C56.2899 45.0824 56.0766 45.2264 55.8328 45.2264C55.5585 45.2264 55.3376 45.0976 55.2537 44.8399C55.2309 44.7869 55.208 44.6732 55.208 44.4838C55.208 44.1124 55.3833 43.1803 55.688 42.7863C55.7795 42.6802 55.9776 42.4528 56.3585 42.4528C56.8385 42.4528 56.9376 42.8772 56.9376 43.1803C56.9376 43.4304 56.8918 43.6729 56.8537 43.8775V43.8624ZM58.1947 44.1731C58.2633 43.9003 58.3014 43.6274 58.3014 43.3622C58.3014 42.8772 58.2023 42.4149 57.7833 42.0436C57.4023 41.7026 56.8766 41.5889 56.3585 41.5889C54.2252 41.5889 53.829 43.5517 53.829 44.3019C53.829 44.9081 53.9966 45.3628 54.3623 45.666C54.7585 46.007 55.3299 46.0903 55.7566 46.0903C56.3814 46.0903 56.9071 45.9615 57.3795 45.575C57.8137 45.2264 58.0652 44.7111 58.2023 44.1731H58.1947Z" fill="#006648"/>
<path fill-rule="evenodd" clip-rule="evenodd" d="M61.0436 44.9536L60.9979 44.9157C60.8455 44.9688 60.7312 45.0143 60.5179 45.0143C60.3426 45.0143 60.1293 44.9385 60.1293 44.6808C60.1293 44.5444 60.236 44.0897 60.2893 43.9078L60.6322 42.4832L61.3865 42.4983L61.455 42.4377C61.5617 42.0588 61.5922 41.9678 61.7065 41.6268L61.676 41.5662L60.8379 41.5814L61.0207 40.8387L61.2036 40.1642L61.1503 40.1188C60.5865 40.2855 60.4265 40.3234 59.8093 40.4598L59.756 40.5204L59.5198 41.5662H58.9788L58.9179 41.6041L58.6817 42.4301L58.7274 42.4983L59.2988 42.4832L59.0246 43.5971C58.9103 44.0518 58.7579 44.6657 58.7579 45.0067C58.7579 45.7418 59.2912 45.9615 59.9922 45.9615C60.2741 45.9615 60.4646 45.9236 60.7312 45.8706L60.7922 45.8024L61.036 44.9536H61.0436Z" fill="#006648"/>
<path fill-rule="evenodd" clip-rule="evenodd" d="M63.5049 42.7863C63.6801 42.6726 63.8553 42.5514 64.0915 42.5514C64.2591 42.5514 64.701 42.6347 64.701 43.3168C64.701 43.9306 64.4039 44.5065 64.0763 44.7869C63.7944 45.0219 63.4058 45.1204 63.1772 45.1204C63.1087 45.1204 63.0477 45.1128 62.9791 45.1052L63.5049 42.7939V42.7863ZM63.7411 41.6193L63.6953 41.5662L62.2934 41.7936L62.2401 41.8542C62.1944 42.271 62.1563 42.5059 62.0039 43.241C61.8515 43.9685 61.6915 44.6884 61.5315 45.4235L61.3868 46.0449L60.9144 47.9622L60.9601 48.0152C61.2649 48.0076 61.5087 47.9925 61.7829 47.9925C61.9658 47.9925 62.1487 48.0001 62.3391 48.0001L62.3925 47.9622L62.7887 46.0146C63.6572 46.0146 64.6782 46.0222 65.4858 45.037C65.9125 44.5217 66.1182 43.8321 66.1182 43.2486C66.1182 42.2104 65.5696 41.6041 64.7544 41.6041C64.221 41.6041 63.8706 41.8466 63.6572 41.9982L63.7563 41.642L63.7411 41.6193Z" fill="#006648"/>
</g>
<defs>
<clipPath id="clip0_0_65">
<rect width="124" height="48" fill="white"/>
</clipPath>
</defs>
</svg>
