<svg width="641" height="181" viewBox="0 0 641 181" fill="none" xmlns="http://www.w3.org/2000/svg">
<g clip-path="url(#clip0_353_14)">
<rect width="180" height="640" transform="translate(0.0214844 180.067) rotate(-90.0049)" fill="#1D1D1D"/>
<g clip-path="url(#clip1_353_14)">
<path d="M52.2769 68.1522L52.2808 143.885L38.5845 143.883L38.5787 30.3648L58.8009 30.3674L89.0173 109.085C90.0917 112.254 91.1124 115.664 92.0793 119.317C93.1 122.916 93.7716 125.521 94.0939 127.132C94.4161 125.682 94.9531 123.695 95.7049 121.17C96.4567 118.592 97.2086 116.122 97.9604 113.759C98.7122 111.395 99.2493 109.838 99.5715 109.086L129.216 30.3763L148.955 30.3787L148.96 143.897L135.103 143.895L135.099 68.1626C135.099 63.9732 135.152 59.8643 135.26 55.836C135.421 51.8077 135.608 47.86 135.823 43.9928C134.481 48.7729 133.219 53.0696 132.037 56.883C130.909 60.6426 129.808 63.8651 128.734 66.5505L99.4121 143.891L88.6162 143.889L58.8833 66.5417L51.7117 43.9822C51.8193 48.0105 51.927 52.0389 52.0346 56.0672C52.1959 60.0955 52.2767 64.1239 52.2769 68.1522ZM274.689 86.63C274.69 98.4464 272.381 108.785 267.762 117.647C263.197 126.455 256.699 133.303 248.266 138.189C239.834 143.076 229.844 145.518 218.296 145.517C206.694 145.515 196.677 143.097 188.244 138.262C179.865 133.373 173.393 126.524 168.827 117.715C164.315 108.906 162.058 98.5396 162.058 86.6158C162.057 74.4771 164.285 64.1111 168.743 55.518C173.254 46.8711 179.699 40.2386 188.078 35.6205C196.51 31.0024 206.635 28.6941 218.451 28.6956C230.053 28.6971 240.043 31.0616 248.422 35.7893C256.855 40.4632 263.328 47.1241 267.84 55.7722C272.406 64.4202 274.689 74.7061 274.689 86.63ZM258.979 86.628C258.978 72.502 255.433 61.4103 248.343 53.3527C241.306 45.2952 231.342 41.2656 218.452 41.264C205.454 41.2623 195.41 45.2357 188.321 53.184C181.231 61.1323 177.687 72.2769 177.688 86.6177C177.688 96.0708 179.3 104.289 182.523 111.272C185.746 118.201 190.392 123.572 196.462 127.387C202.531 131.147 209.809 133.028 218.295 133.029C231.401 133.031 241.445 129.004 248.427 120.948C255.462 112.838 258.98 101.398 258.979 86.628ZM226.349 77.4393L226.35 95.0833L210.64 95.0814L210.639 77.4373L226.349 77.4393ZM301.646 68.5059L301.65 143.916L287.954 143.914L287.948 30.3963L305.834 30.3986L367.23 127.731C366.585 117.149 366.262 109.522 366.262 104.85L366.258 30.4062L380.116 30.4079L380.122 143.926L361.591 143.924L300.839 47.2363C300.947 50.7812 301.108 54.3262 301.323 57.8711C301.538 61.4161 301.646 64.961 301.646 68.5059ZM433.662 63.9303L402.406 143.848L386.212 143.846L432.532 30.334L448.484 30.336L494.816 143.86L478.622 143.858L447.358 63.9321C446.069 60.6018 444.887 57.2716 443.813 53.9414C442.792 50.5575 441.718 47.2004 440.59 43.8702C439.838 46.0722 439.086 48.3011 438.334 50.5569C437.636 52.8127 436.884 55.0684 436.079 57.3242C435.327 59.5262 434.521 61.7283 433.662 63.9303ZM598.631 86.0264C598.631 98.0039 596.296 108.316 591.623 116.963C587.004 125.61 580.533 132.269 572.208 136.941C563.936 141.613 554.322 143.948 543.365 143.947L500.907 143.941L500.901 30.4232L538.445 30.4279C557.673 30.4304 572.498 35.2662 582.918 44.9355C593.392 54.5511 598.63 68.248 598.631 86.0264ZM583.162 86.0244C583.161 71.9521 579.294 61.2363 571.559 53.8769C563.878 46.4639 552.733 42.7564 538.123 42.7546L516.29 42.7518L516.294 131.617L541.592 131.62C550.025 131.621 557.329 129.769 563.506 126.063C569.736 122.358 574.57 117.095 578.007 110.274C581.444 103.453 583.163 95.3701 583.162 86.0244Z" fill="white"/>
</g>
</g>
<defs>
<clipPath id="clip0_353_14">
<rect width="180" height="640" fill="white" transform="translate(0.0214844 180.067) rotate(-90.0049)"/>
</clipPath>
<clipPath id="clip1_353_14">
<rect width="175.624" height="640.142" fill="white" transform="translate(-0.423828 176.002) rotate(-90.0049)"/>
</clipPath>
</defs>
</svg>
