<svg width="671" height="226" viewBox="0 0 671 226" fill="none" xmlns="http://www.w3.org/2000/svg">
<g clip-path="url(#clip0_1319_45)">
<path d="M67.6012 92.6559L67.6054 168.388L53.9091 168.386L53.9029 54.8681L74.125 54.8712L104.342 133.589C105.416 136.758 106.437 140.169 107.404 143.822C108.425 147.42 109.096 150.026 109.418 151.637C109.741 150.187 110.278 148.2 111.029 145.675C111.781 143.097 112.533 140.627 113.285 138.263C114.037 135.9 114.574 134.343 114.896 133.591L144.54 54.882L164.279 54.885L164.285 168.403L150.428 168.401L150.424 92.6685C150.423 88.4791 150.477 84.3702 150.584 80.3419C150.745 76.3136 150.933 72.3659 151.147 68.4987C149.805 73.2788 148.543 77.5755 147.361 81.3888C146.234 85.1484 145.133 88.3709 144.059 91.0562L114.737 168.396L103.941 168.394L74.2076 91.0456L67.0359 68.4859C67.1436 72.5142 67.2512 76.5425 67.3589 80.5709C67.5202 84.5992 67.601 88.6276 67.6012 92.6559ZM290.014 111.14C290.015 122.956 287.706 133.295 283.087 142.157C278.522 150.965 272.023 157.812 263.591 162.698C255.159 167.584 245.169 170.027 233.621 170.025C222.019 170.023 212.002 167.605 203.569 162.769C195.19 157.88 188.717 151.031 184.151 142.222C179.639 133.413 177.383 123.046 177.382 111.122C177.381 98.9837 179.61 88.6178 184.067 80.0248C188.579 71.378 195.024 64.7457 203.402 60.1278C211.835 55.51 221.959 53.2019 233.775 53.2037C245.377 53.2055 255.367 55.5703 263.746 60.2982C272.179 64.9723 278.652 71.6335 283.164 80.2816C287.73 88.9298 290.013 99.2158 290.014 111.14ZM274.303 111.137C274.303 97.0112 270.757 85.9194 263.667 77.8616C256.63 69.8039 246.667 65.7741 233.776 65.7721C220.778 65.7701 210.734 69.7432 203.645 77.6913C196.555 85.6395 193.011 96.7839 193.012 111.125C193.012 120.578 194.624 128.796 197.847 135.779C201.07 142.708 205.717 148.08 211.786 151.894C217.856 155.655 225.134 157.536 233.62 157.537C246.725 157.539 256.769 153.512 263.751 145.457C270.787 137.348 274.304 125.908 274.303 111.137ZM241.674 101.948L241.675 119.592L225.964 119.589L225.963 101.945L241.674 101.948ZM316.97 93.0163L316.975 168.426L303.278 168.424L303.272 54.9063L321.158 54.909L382.555 152.243C381.91 141.661 381.587 134.034 381.587 129.362L381.583 54.9183L395.44 54.9204L395.446 168.438L376.916 168.436L316.164 71.7466C316.271 75.2916 316.433 78.8365 316.648 82.3815C316.863 85.9264 316.97 89.4714 316.97 93.0163ZM448.986 88.4442L417.731 168.361L401.537 168.359L447.857 54.8478L463.809 54.8503L510.141 168.375L493.947 168.373L462.683 88.4463C461.393 85.116 460.212 81.7858 459.137 78.4555C458.116 75.0716 457.042 71.7145 455.914 68.3842C455.162 70.5862 454.41 72.8151 453.658 75.0709C452.96 77.3266 452.209 79.5824 451.403 81.8381C450.651 84.0402 449.846 86.2422 448.986 88.4442ZM613.955 110.545C613.956 122.522 611.62 132.834 606.948 141.481C602.329 150.128 595.857 156.787 587.532 161.459C579.261 166.13 569.647 168.465 558.69 168.463L516.231 168.457L516.225 54.9388L553.769 54.9446C572.998 54.9475 587.822 59.7838 598.243 69.4534C608.717 79.0692 613.954 92.7663 613.955 110.545ZM598.487 110.542C598.486 96.47 594.618 85.7541 586.883 78.3945C579.202 70.9812 568.057 67.2734 553.448 67.2712L531.614 67.2679L531.619 156.133L556.917 156.136C565.349 156.138 572.654 154.286 578.831 150.581C585.061 146.876 589.895 141.613 593.332 134.792C596.769 127.971 598.487 119.888 598.487 110.542Z" fill="white"/>
<path d="M6.56445 -0.289784V224.71M663.564 -0.289795V224.71M13.0645 6.21021H657.064M13.0645 218.21H657.064" stroke="#33C0F0" stroke-width="13"/>
</g>
<defs>
<clipPath id="clip0_1319_45">
<rect width="225" height="670" fill="white" transform="translate(0.0195312 225.058) rotate(-90.0049)"/>
</clipPath>
</defs>
</svg>
