<svg width="157" height="22" viewBox="0 0 157 22" fill="none" xmlns="http://www.w3.org/2000/svg">
<path d="M97.9044 10.8615C98.2572 10.465 98.6064 10.0685 98.9628 9.67552C99.9564 8.58241 100.939 7.47858 101.958 6.41047C102.116 6.24615 102.444 6.17827 102.692 6.1747C104.582 6.15684 106.469 6.16756 108.359 6.1747C108.657 6.1747 108.956 6.20685 109.334 6.22829C109.215 6.39618 109.172 6.48906 109.1 6.55693C107.653 7.91439 106.206 9.26828 104.759 10.6222C104.64 10.7329 104.518 10.8436 104.406 10.9651C103.913 11.4938 103.952 11.5224 104.334 12.1332C105.277 13.6514 106.17 15.1982 107.091 16.7307C107.912 18.0953 108.74 19.4564 109.565 20.8174C109.593 20.8638 109.593 20.9281 109.622 21.046C109.446 21.0675 109.295 21.1032 109.143 21.1032C107.239 21.1068 105.335 21.0996 103.43 21.1139C103.009 21.1139 102.797 20.9424 102.613 20.5709C101.929 19.1742 101.198 17.7953 100.489 16.4092C100.309 16.0556 100.136 15.6984 99.8988 15.209C99.3588 15.7734 98.9592 16.3628 98.4048 16.7272C97.7604 17.1523 97.7964 17.6952 97.8036 18.3025C97.8144 19.2206 97.8036 20.1387 97.8036 21.1103C97.2492 21.1103 96.7416 21.1103 96.2376 21.1103C94.9164 21.1103 93.5989 21.1103 92.2777 21.1175C91.9501 21.1175 91.7953 21.0389 91.7953 20.6638C91.8061 14.2945 91.8025 7.92511 91.8097 1.55577C91.8097 0.37335 91.6765 0.519813 92.8645 0.505524C94.3333 0.491235 95.802 0.480518 97.2708 0.437651C97.674 0.426934 97.818 0.509096 97.818 0.94134C97.8 4.14209 97.8036 7.33926 97.8036 10.54C97.8036 10.6257 97.8036 10.715 97.8036 10.8008C97.8396 10.8222 97.8756 10.8436 97.9116 10.8651L97.9044 10.8615Z" fill="#FF7900"/>
<path d="M126.531 7.87516C127.186 7.40005 127.676 6.98567 128.223 6.66417C130.023 5.61035 133.069 5.41387 134.894 6.8785C135.941 7.71798 136.517 8.86111 136.561 10.1185C136.679 13.4622 136.651 16.8094 136.679 20.1566C136.679 20.4495 136.679 20.7425 136.679 21.0747H130.855V20.5567C130.855 18.1776 130.887 15.7949 130.833 13.4157C130.815 12.6763 130.606 11.9297 130.394 11.2117C130.322 10.9687 130.009 10.7187 129.746 10.6258C129.282 10.4579 128.799 10.3007 128.263 10.4829C127.032 10.8973 126.708 11.9082 126.603 13.0014C126.51 13.9587 126.56 14.934 126.556 15.8985C126.549 17.4595 126.542 19.0242 126.56 20.5853C126.564 20.9997 126.427 21.1175 126.02 21.114C124.371 21.0961 122.722 21.1068 121.07 21.114C120.789 21.114 120.58 21.0961 120.584 20.7174C120.595 15.702 120.598 10.6901 120.602 5.67465C120.602 4.14215 120.616 2.60965 120.595 1.07715C120.588 0.616325 120.76 0.498441 121.2 0.498441C122.834 0.502013 124.468 0.480579 126.099 0.452001C126.445 0.444857 126.592 0.548452 126.585 0.905678C126.56 2.5132 126.546 4.11714 126.531 5.72466C126.524 6.40339 126.531 7.08212 126.531 7.87873V7.87516Z" fill="#FF7900"/>
<path d="M24.8541 15.184C24.7569 16.4843 25.9629 17.8668 27.2084 18.0168C28.1048 18.1276 28.9868 17.9275 29.5448 17.3381C30.2216 16.6201 30.9416 16.8201 31.676 16.8594C32.9432 16.9309 34.2103 17.0702 35.4739 17.1774C35.9599 17.2202 36.0067 17.3095 35.7547 17.7132C34.4623 19.7887 32.5976 21.0604 30.1604 21.3247C27.896 21.5677 25.5993 21.6677 23.3925 20.9389C22.6401 20.6889 21.8013 20.3602 21.2829 19.8101C20.5233 18.9992 19.8897 18.0133 19.4289 17.0023C18.0934 14.0516 18.6729 10.315 21.0561 8.00736C21.9381 7.15359 23.0289 6.60703 24.2025 6.26409C26.0025 5.7354 27.8384 5.78184 29.678 6.00689C30.8552 6.14978 31.9784 6.46057 32.9648 7.11072C34.9195 8.39316 35.9995 10.2257 36.2191 12.5441C36.2875 13.2514 36.3019 13.9623 36.3415 14.6732C36.3667 15.0912 36.1363 15.1983 35.7547 15.1983C32.9216 15.1912 30.0848 15.1947 27.2516 15.1947C26.4452 15.1947 25.6425 15.1947 24.8433 15.1947L24.8541 15.184ZM27.518 12.2905C28.1012 12.2869 28.6844 12.2905 29.2676 12.2869C30.4844 12.2691 30.4232 12.4477 30.1208 11.1902C29.8292 9.98639 28.3892 9.06475 27.1796 9.36124C25.8945 9.6756 25.0737 10.4722 24.8433 11.8118C24.7821 12.1655 24.8433 12.3048 25.2285 12.2941C25.9917 12.2762 26.7548 12.2869 27.518 12.2869V12.2905Z" fill="#FF7900"/>
<path d="M5.60873 8.36461C6.74991 7.09289 8.0243 6.14267 9.68748 5.92476C11.2355 5.72471 12.7762 5.79616 14.1226 6.74995C15.4042 7.65731 16.009 8.98976 16.0414 10.4651C16.1242 13.9445 16.0702 17.4274 16.0702 20.9068C16.0702 20.9497 16.0522 20.9926 16.0378 21.0676H10.2527C10.2527 20.8854 10.2527 20.7104 10.2527 20.5389C10.2527 18.0704 10.2635 15.5984 10.2419 13.13C10.2383 12.6478 10.1087 12.1655 10.0151 11.6868C9.88907 11.0545 9.49308 10.708 8.85949 10.533C7.8983 10.2651 7.01271 10.5151 6.54472 11.3867C6.27112 11.8976 6.02272 12.4941 6.00832 13.0586C5.94712 15.5699 5.96152 18.0847 5.97592 20.5996C5.97592 20.9926 5.88232 21.1176 5.47913 21.114C3.81595 21.0962 2.14917 21.0997 0.485994 21.114C0.107999 21.1176 0 20.9854 0 20.621C0.0107999 16.0235 0.0107999 11.426 0.0179998 6.82854C0.0179998 6.20697 0.0395995 6.21054 0.651592 6.21054C1.96917 6.21411 3.29036 6.21054 4.60794 6.21054C4.63674 6.21054 4.66914 6.21054 4.69794 6.21054C5.29553 6.18673 5.59913 6.48084 5.60873 7.09289C5.61233 7.49655 5.60873 7.89665 5.60873 8.36104V8.36461Z" fill="#FF7900"/>
<path d="M156.09 21.0781H150.655V19.0312C150.604 18.9955 150.554 18.9598 150.503 18.9241C150.406 19.067 150.316 19.2134 150.208 19.3456C149.107 20.6745 147.663 21.3353 145.957 21.4461C144.841 21.5175 143.732 21.4711 142.706 20.9674C141.143 20.1994 140.384 18.9026 140.215 17.2129C139.862 13.6943 140.132 10.1684 140.038 6.6462C140.027 6.2604 140.229 6.21396 140.542 6.21038C141.982 6.19609 143.419 6.17466 144.859 6.14251C145.19 6.13537 145.521 6.07464 145.917 6.0282C145.946 6.41043 146.011 6.84625 146.011 7.28563C146.003 9.69691 145.957 12.1046 145.982 14.5159C145.989 15.0624 146.158 15.6376 146.378 16.1448C146.486 16.3949 146.857 16.5842 147.148 16.6985C148.606 17.2558 149.747 16.4163 150.003 15.1339C150.194 14.1658 150.262 13.1656 150.284 12.1761C150.323 10.4078 150.287 8.63595 150.284 6.86411C150.284 6.66049 150.284 6.4533 150.284 6.20324C151.324 6.20324 152.307 6.21038 153.293 6.20324C154.085 6.19609 154.881 6.17823 155.673 6.14251C155.993 6.12822 156.13 6.21038 156.13 6.55689C156.119 11.3044 156.123 16.0484 156.119 20.7959C156.119 20.8817 156.105 20.9674 156.094 21.0853L156.09 21.0781Z" fill="#FF7900"/>
<path d="M80.8369 21.5532C79.7893 21.4174 78.4501 21.346 77.1614 21.0495C75.6998 20.7101 74.5478 19.8171 73.7846 18.5025C73.5902 18.1703 73.4426 17.8059 73.3022 17.4487C73.1654 17.1021 73.3346 16.8878 73.6838 16.8521C74.6666 16.7485 75.6494 16.6663 76.6322 16.577C77.3486 16.5127 78.0649 16.4627 78.7777 16.402C79.0261 16.3805 79.2313 16.427 79.2925 16.7092C79.4077 17.2522 79.8109 17.5701 80.2285 17.8595C80.9593 18.3667 82.6045 18.3417 83.3137 17.8095C83.6413 17.5665 83.9509 17.2736 83.8645 16.8092C83.7673 16.2877 83.3569 16.0162 82.9033 15.909C81.8845 15.6661 80.8477 15.5125 79.8253 15.2946C78.8029 15.0767 77.7337 14.9481 76.7834 14.5516C75.023 13.8121 73.9538 12.6332 73.8206 10.6971C73.745 9.59683 74.1482 8.55372 74.951 7.73925C76.0238 6.64614 77.3954 6.13888 78.8857 5.97455C80.7829 5.76736 82.6873 5.74235 84.5701 6.09958C85.9272 6.35678 87.0648 7.01408 87.864 8.16435C88.1448 8.56801 88.4004 8.98954 88.62 9.42536C88.8252 9.83974 88.7064 9.99692 88.2564 10.0291C86.8056 10.1362 85.3584 10.2434 83.9113 10.3613C83.4073 10.4006 83.0185 10.3827 82.7521 9.80044C82.5397 9.33962 81.9637 9.16458 81.4453 9.14672C80.8945 9.12886 80.3401 9.17887 79.7929 9.24317C79.4437 9.28604 79.0297 9.92905 79.0945 10.3291C79.1629 10.7399 79.4797 10.9686 79.8721 11.0329C81.4525 11.2865 83.0473 11.458 84.6097 11.7759C86.3772 12.1367 87.9864 12.8297 88.908 14.5373C89.7252 16.0519 89.4696 17.7166 88.3284 19.1598C87.3204 20.4351 85.8876 20.9995 84.3433 21.2567C83.2849 21.4317 82.2013 21.4496 80.8369 21.5639V21.5532Z" fill="#FF7900"/>
<path d="M45.6006 0.491275C45.6006 0.769912 45.6006 0.962814 45.6006 1.15214C45.6006 2.69893 45.6114 4.2493 45.5934 5.79608C45.5898 6.16046 45.7086 6.25333 46.0614 6.2319C46.8534 6.18903 47.649 6.19975 48.441 6.17474C48.6966 6.1676 48.7974 6.2712 48.7974 6.51054C48.8082 7.71439 48.8154 8.92181 48.8334 10.1257C48.837 10.4365 48.6606 10.4936 48.405 10.5008C47.6418 10.515 46.875 10.5365 46.1118 10.5579C45.9498 10.5615 45.7914 10.5829 45.597 10.6008C45.597 10.783 45.597 10.9259 45.597 11.0723C45.597 12.5762 45.5754 14.0802 45.6114 15.5805C45.6222 16.0413 45.7554 16.5164 45.9174 16.9523C45.9786 17.113 46.2918 17.2809 46.4826 17.2738C47.0586 17.2488 47.649 17.1952 48.2034 17.0487C48.5994 16.9451 48.6786 17.0737 48.7146 17.3988C48.8298 18.4776 48.9486 19.5529 49.0746 20.6317C49.1142 20.9568 48.9126 21.0532 48.6534 21.0925C47.901 21.2104 47.145 21.4069 46.3926 21.414C45.1686 21.4283 43.941 21.3569 42.7243 21.2533C41.5579 21.1532 40.0963 19.9029 39.9631 18.349C39.8911 17.4917 39.7975 16.6343 39.7831 15.7734C39.7543 14.1945 39.7579 12.6191 39.7867 11.0402C39.7939 10.6329 39.6607 10.5115 39.2827 10.5329C38.8795 10.5543 38.4727 10.5329 38.0695 10.5543C37.7527 10.5722 37.6051 10.4722 37.6087 10.1292C37.6231 8.95396 37.6231 7.77869 37.6087 6.60342C37.6051 6.27834 37.7275 6.19261 38.0335 6.21047C38.4511 6.23547 38.8723 6.20689 39.2935 6.22833C39.6427 6.24619 39.7867 6.11402 39.7795 5.76393C39.7651 5.11021 39.7543 4.45291 39.7903 3.79919C39.8011 3.617 39.9343 3.3598 40.0855 3.27407C41.7559 2.37386 43.4406 1.49865 45.1254 0.623449C45.237 0.566293 45.3738 0.548432 45.6006 0.484131V0.491275Z" fill="#FF7900"/>
<path d="M57.4517 21.0924H51.6774C51.6702 20.9245 51.6522 20.7709 51.6522 20.6138C51.6522 15.9984 51.6558 11.3866 51.6414 6.77124C51.6414 6.33543 51.7854 6.20683 52.2102 6.2104C53.679 6.22112 55.1478 6.2104 56.6166 6.19611C57.0054 6.19254 57.1457 6.34615 57.1277 6.73195C57.1026 7.23564 57.1205 7.7429 57.1205 8.38948C57.4013 7.95724 57.6065 7.63216 57.8225 7.31066C58.6577 6.05679 59.8889 5.69242 61.3037 5.89604C61.9157 5.98535 62.4989 6.26398 63.0893 6.4676C63.4313 6.58549 63.4997 6.84626 63.3665 7.1499C62.9021 8.24659 62.4449 9.34327 61.9373 10.4221C61.8653 10.5793 61.5593 10.6614 61.3469 10.7079C61.2029 10.7365 61.0193 10.665 60.8753 10.5971C59.8817 10.1113 58.7981 10.6007 58.2545 11.6188C57.7649 12.5404 57.5957 13.5335 57.5669 14.5409C57.5021 16.5914 57.5021 18.6454 57.4733 20.6995C57.4733 20.8138 57.4589 20.9317 57.4481 21.0889L57.4517 21.0924Z" fill="#FF7900"/>
<path d="M64.8099 21.2032C64.7811 20.8138 64.7271 20.403 64.7271 19.9922C64.7235 15.6054 64.7271 11.2187 64.7271 6.82839C64.7271 6.20681 64.7379 6.21396 65.3571 6.21039C66.9303 6.1961 68.5035 6.16037 70.0767 6.14966C70.7066 6.14609 70.7318 6.21753 70.6778 6.82124C70.6382 7.26063 70.6706 7.71074 70.6706 8.1537C70.6706 11.7831 70.6706 15.4125 70.6706 19.0419C70.6706 19.6207 70.6634 20.1994 70.6886 20.7745C70.7066 21.1389 70.4727 21.0996 70.2459 21.0996C68.6403 21.0996 67.0383 21.0996 65.4327 21.1031C65.2383 21.1031 65.0439 21.1603 64.7991 21.1996L64.8099 21.2032Z" fill="#FF7900"/>
<path d="M111.076 21.071V15.3447C111.228 15.3375 111.372 15.3232 111.516 15.3232C113.24 15.3232 114.964 15.3339 116.689 15.3125C117.128 15.3054 117.254 15.4483 117.247 15.8734C117.225 17.4487 117.236 19.0277 117.232 20.6066C117.232 20.7531 117.218 20.896 117.211 21.071H111.076Z" fill="#FF7900"/>
<path d="M64.8244 4.54218C64.8028 4.21711 64.7596 3.8956 64.7596 3.5741C64.7596 2.63817 64.7884 1.70223 64.7884 0.766302C64.7884 0.426937 65.0044 0.43051 65.242 0.437654C66.4876 0.459088 67.7296 0.480521 68.9752 0.498383C69.4252 0.505527 69.8716 0.498383 70.3216 0.491238C70.6024 0.487666 70.7068 0.587689 70.7032 0.891331C70.6852 1.91657 70.696 2.94181 70.714 3.96348C70.7248 4.51718 70.7068 4.55647 70.156 4.55647C68.626 4.55647 67.096 4.54933 65.566 4.54218C65.3284 4.54218 65.0944 4.54218 64.8208 4.54218H64.8244Z" fill="#FF7900"/>
</svg>
