<svg xmlns="http://www.w3.org/2000/svg" width="227" height="82" viewBox="0 0 227 82" fill="none"><path d="M158.805 33.7745C156.961 31.9312 155.004 30.6904 151.916 30.6904C148.829 30.6904 146.568 32.1915 144.985 33.7781C143.402 35.3647 142.233 38.1314 142.233 41.0016V56.8212C142.233 57.399 142.462 57.9531 142.871 58.3616C143.279 58.7702 143.833 58.9997 144.411 58.9997C144.989 58.9997 145.543 58.7702 145.952 58.3616C146.36 57.9531 146.59 57.399 146.59 56.8212V49.4052C148.155 50.4926 150.01 51.0862 151.916 51.1095C155.015 51.1095 157.193 49.6334 158.805 48.0218C160.64 46.1013 161.664 43.5473 161.664 40.891C161.664 38.2348 160.64 35.6807 158.805 33.7602V33.7745ZM155.746 45.1838C154.747 46.2249 153.157 46.6884 151.916 46.6884C150.676 46.6884 149.082 46.2249 148.083 45.1838C147.085 44.1427 146.597 42.6203 146.597 41.023C146.597 39.5041 147.085 37.6572 148.083 36.6589C149.122 35.6826 150.491 35.1328 151.916 35.1187C153.339 35.1402 154.704 35.6891 155.746 36.6589C156.801 37.8405 157.369 39.3783 157.336 40.9623C157.376 42.5218 156.805 44.0353 155.746 45.1802V45.1838Z" fill="#28AAE1"></path><path d="M181.092 33.7745C179.248 31.9312 177.295 30.6904 174.214 30.6904C171.134 30.6904 168.866 32.1915 167.283 33.7781C165.7 35.3647 164.534 38.1314 164.534 41.0016V56.8212C164.557 57.3833 164.796 57.9147 165.202 58.3044C165.608 58.694 166.148 58.9116 166.711 58.9116C167.273 58.9116 167.814 58.694 168.22 58.3044C168.625 57.9147 168.865 57.3833 168.887 56.8212V49.4052C170.453 50.4926 172.308 51.0862 174.214 51.1095C177.312 51.1095 179.491 49.6334 181.102 48.0218C182.938 46.1013 183.962 43.5473 183.962 40.891C183.962 38.2348 182.938 35.6807 181.102 33.7602L181.092 33.7745ZM178.033 45.1838C177.034 46.2249 175.444 46.6884 174.203 46.6884C172.963 46.6884 171.372 46.2249 170.371 45.1838C169.369 44.1427 168.884 42.6203 168.884 41.023C168.884 39.5041 169.372 37.6572 170.371 36.6589C171.401 35.6703 172.774 35.1183 174.202 35.1183C175.63 35.1183 177.002 35.6703 178.033 36.6589C179.09 37.8396 179.658 39.378 179.623 40.9623C179.664 42.5221 179.094 44.0362 178.033 45.1802V45.1838Z" fill="#28AAE1"></path><path d="M93.0089 40.7985C93.0087 38.1751 91.9854 35.6553 90.1565 33.7746C88.545 32.1631 86.3665 30.6906 83.2682 30.6906C81.3651 30.7142 79.5125 31.3065 77.9486 32.3913V25.1785C77.9486 24.6007 77.7191 24.0466 77.3106 23.6381C76.902 23.2295 76.3479 23 75.7702 23C75.1924 23 74.6383 23.2295 74.2298 23.6381C73.8212 24.0466 73.5917 24.6007 73.5917 25.1785V40.7985C73.5917 43.6686 74.7576 46.4354 76.3442 48.022C77.9308 49.6086 80.1841 51.1096 83.2753 51.1096C86.3665 51.1096 88.3204 49.8653 90.1637 48.022C91.0963 47.069 91.8286 45.9388 92.3172 44.6981C92.8059 43.4575 93.0411 42.1315 93.0089 40.7985ZM88.6876 40.8377C88.7229 42.422 88.1545 43.9605 87.0974 45.1411C86.0558 46.111 84.6913 46.6598 83.2682 46.6814C81.8426 46.6672 80.4744 46.1174 79.4354 45.1411C78.4371 44.1428 77.9486 42.2888 77.9486 40.7771C77.9486 39.1798 78.4371 37.6146 79.4354 36.6163C80.4337 35.6179 82.0274 35.1117 83.2682 35.1117C84.509 35.1117 86.0991 35.5752 87.0974 36.6163C88.158 37.762 88.7287 39.277 88.6876 40.8377Z" fill="#1C1259"></path><path d="M95.6208 45.2699C95.7972 45.0428 96.0175 44.8537 96.2686 44.7137C96.5198 44.5737 96.7965 44.4857 97.0824 44.4551C97.3683 44.4245 97.6574 44.4518 97.9325 44.5355C98.2076 44.6191 98.463 44.7573 98.6835 44.9419C99.7531 45.8404 101.582 46.7781 103.176 46.7246C104.154 46.7205 105.112 46.4519 105.95 45.9473C106.524 45.4589 106.688 45.0488 106.688 44.7244C106.696 44.5772 106.652 44.4319 106.563 44.3144C106.524 44.1931 106.36 44.0291 106.035 43.8259C105.461 43.4159 104.253 42.9667 102.766 42.6814H102.727C101.5 42.4684 100.303 42.1093 99.1612 41.6118C98.0235 41.0951 97.0493 40.2763 96.3446 39.2444C95.8754 38.4679 95.6287 37.5774 95.6315 36.6702C95.6315 34.7912 96.7011 33.201 98.0417 32.1778C99.533 31.1777 101.295 30.6588 103.09 30.691C105.911 30.691 107.911 32.0387 109.219 32.9372C109.693 33.2633 110.024 33.7577 110.145 34.3196C110.266 34.8814 110.168 35.4684 109.872 35.9606C109.712 36.1981 109.507 36.4015 109.269 36.559C109.03 36.7164 108.762 36.8249 108.481 36.8779C108.2 36.931 107.911 36.9277 107.632 36.8682C107.352 36.8086 107.087 36.694 106.852 36.5311C105.543 35.6754 104.399 35.0229 103.09 35.0229C102.217 35.0036 101.36 35.2607 100.641 35.7574C100.113 36.114 99.9884 36.4919 99.9884 36.6951C99.9716 36.811 100.001 36.9288 100.07 37.0231C100.179 37.1981 100.335 37.3389 100.52 37.4296C101.051 37.7861 102.113 38.1641 103.5 38.4101L103.543 38.4529H103.582C104.896 38.6744 106.173 39.0726 107.379 39.6366C108.569 40.1262 109.582 40.967 110.282 42.0468C110.777 42.8594 111.044 43.7905 111.055 44.7422C111.035 45.6791 110.791 46.5975 110.344 47.421C109.896 48.2445 109.259 48.9494 108.485 49.4771C106.924 50.5525 105.071 51.1236 103.176 51.1136C99.9884 51.0708 97.539 49.6019 95.906 48.2934C95.4737 47.9268 95.2019 47.4057 95.1486 46.8415C95.0953 46.2772 95.2648 45.7145 95.6208 45.2735" fill="#28AAE1"></path><path d="M118.209 48.7885C118.209 49.0807 118.151 49.37 118.038 49.6395C117.925 49.909 117.76 50.1533 117.551 50.3581C117.343 50.5629 117.095 50.7241 116.824 50.8323C116.553 50.9405 116.262 50.9936 115.97 50.9883C115.68 50.9922 115.393 50.9379 115.124 50.8287C114.856 50.7194 114.612 50.5575 114.407 50.3524C114.203 50.1473 114.041 49.9032 113.932 49.6346C113.823 49.366 113.77 49.0783 113.774 48.7885V25.2212C113.774 24.6331 114.008 24.069 114.423 23.6531C114.839 23.2372 115.403 23.0035 115.992 23.0035C116.58 23.0035 117.144 23.2372 117.56 23.6531C117.976 24.069 118.209 24.6331 118.209 25.2212V32.1702C119.518 31.4376 120.988 31.0395 122.488 31.0114C124.802 31.0199 127.018 31.9458 128.65 33.5861C130.282 35.2263 131.197 37.4469 131.194 39.7609V48.7885C131.194 49.371 130.963 49.9296 130.551 50.3415C130.139 50.7534 129.581 50.9848 128.998 50.9848C128.416 50.9848 127.857 50.7534 127.445 50.3415C127.033 49.9296 126.802 49.371 126.802 48.7885V39.7609C126.815 39.1908 126.712 38.6239 126.5 38.0945C126.288 37.5651 125.971 37.0843 125.568 36.681C125.164 36.2778 124.683 35.9605 124.154 35.7483C123.625 35.5362 123.058 35.4336 122.488 35.4468C119.921 35.4468 118.252 37.4042 118.209 39.7609V48.7885Z" fill="#28AAE1"></path><path d="M138.873 26.0203C138.878 26.3069 138.826 26.5916 138.72 26.8578C138.614 27.1241 138.456 27.3665 138.255 27.571C138.054 27.7755 137.815 27.9379 137.551 28.0487C137.286 28.1596 137.003 28.2166 136.716 28.2166C136.139 28.21 135.588 27.9752 135.184 27.5637C134.78 27.1521 134.555 26.5972 134.559 26.0203V25.1789C134.559 24.8964 134.615 24.6168 134.723 24.3561C134.832 24.0954 134.991 23.8587 135.192 23.6599C135.392 23.461 135.63 23.3038 135.892 23.1973C136.153 23.0909 136.434 23.0373 136.716 23.0396C136.998 23.0373 137.278 23.0909 137.54 23.1973C137.802 23.3038 138.04 23.461 138.24 23.6599C138.441 23.8587 138.6 24.0954 138.708 24.3561C138.817 24.6168 138.873 24.8964 138.873 25.1789V26.0203ZM138.873 33.2117V48.8317C138.875 49.1156 138.821 49.3972 138.714 49.66C138.606 49.9228 138.447 50.1615 138.247 50.3623C138.046 50.5631 137.807 50.7219 137.544 50.8294C137.281 50.937 137 50.9912 136.716 50.9888C136.432 50.9912 136.15 50.937 135.888 50.8294C135.625 50.7219 135.386 50.5631 135.185 50.3623C134.985 50.1615 134.826 49.9228 134.718 49.66C134.611 49.3972 134.556 49.1156 134.559 48.8317V33.2117C134.551 32.9242 134.601 32.638 134.706 32.3703C134.811 32.1025 134.968 31.8586 135.17 31.6533C135.371 31.4479 135.612 31.2853 135.878 31.1751C136.143 31.0649 136.428 31.0093 136.716 31.0119C137.005 31.0053 137.292 31.058 137.559 31.1667C137.827 31.2755 138.069 31.438 138.271 31.6442C138.473 31.8505 138.631 32.096 138.735 32.3656C138.838 32.6352 138.885 32.9232 138.873 33.2117Z" fill="#28AAE1"></path><path d="M203.509 33.1299V48.2293C203.53 49.8483 203.134 51.4454 202.359 52.867C201.584 54.2886 200.456 55.4868 199.084 56.3464C197.712 57.206 196.142 57.6979 194.525 57.775C192.908 57.852 191.298 57.5115 189.85 56.7863C189.591 56.6735 189.358 56.5095 189.165 56.3041C188.971 56.0988 188.821 55.8564 188.724 55.5915C188.627 55.3266 188.584 55.0448 188.599 54.7629C188.613 54.4811 188.685 54.2052 188.809 53.9518C189.087 53.4733 189.534 53.1168 190.063 52.9536C190.592 52.7904 191.162 52.8324 191.661 53.0712C192.334 53.4118 193.073 53.6019 193.827 53.6285C194.581 53.6551 195.331 53.5174 196.027 53.2251C196.722 52.9327 197.345 52.4926 197.854 51.9354C198.362 51.3781 198.743 50.717 198.97 49.9978C197.808 50.6344 196.502 50.9633 195.177 50.9533C192.96 50.9392 190.838 50.0496 189.274 48.4782C187.71 46.9068 186.83 44.781 186.827 42.5639V33.1299C186.832 32.5766 187.051 32.0469 187.439 31.652C187.827 31.2571 188.352 31.0277 188.905 31.012C189.186 31.0042 189.464 31.0536 189.725 31.1572C189.985 31.2609 190.222 31.4166 190.42 31.6148C190.619 31.8131 190.774 32.0497 190.878 32.3102C190.982 32.5707 191.031 32.8496 191.023 33.1299V42.5568C191.023 44.8743 192.692 46.632 195.177 46.632C197.662 46.632 199.291 44.8743 199.291 42.5568V33.1299C199.282 32.8528 199.328 32.5766 199.429 32.3181C199.529 32.0596 199.681 31.8241 199.875 31.6261C200.069 31.428 200.301 31.2715 200.558 31.1659C200.814 31.0604 201.089 31.008 201.366 31.012C201.93 31.012 202.471 31.2345 202.872 31.631C203.272 32.0276 203.5 32.5662 203.506 33.1299" fill="#28AAE1"></path><path d="M51.1092 40.9588C51.1413 35.3718 55.4875 30.6904 61.1458 30.6904C66.4939 30.6904 70.7118 34.673 71.0469 40.2279V40.4275C71.0512 40.5473 71.0405 40.667 71.0148 40.7841C70.8794 41.7539 70.0451 42.4242 68.8756 42.4242H55.8441C56.0434 43.4432 56.531 44.3836 57.2488 45.1339C58.2685 46.1536 59.1385 46.7953 61.1957 46.9736C62.7752 47.1127 64.5579 46.8025 65.4742 45.9361C66.3905 45.0697 68.0163 45.1659 68.5547 45.8042C69.0895 46.371 69.4888 47.6082 68.5547 48.4782C66.5474 50.3179 64.1051 51.1879 61.1922 51.1879C55.4875 51.1558 51.1556 46.5529 51.1235 40.9516L51.1092 40.9588ZM55.5731 38.9443H67.2141C66.8148 37.3042 64.5365 34.5945 61.1244 34.5945C59.8427 34.5815 58.5947 35.005 57.5857 35.7956C56.5768 36.5862 55.867 37.6967 55.5731 38.9443Z" fill="#1C1259"></path><path d="M50.1856 33.9781L43.4827 49.6979C43.3153 50.0835 43.038 50.4112 42.6854 50.6401C42.3329 50.869 41.9207 50.989 41.5003 50.9851C41.0881 50.9909 40.684 50.8708 40.3418 50.6408C39.9997 50.4108 39.7359 50.0819 39.5857 49.6979C39.19 48.7888 36.6122 42.6955 36.6122 42.6955C36.6122 42.6955 34.1164 48.7923 33.7385 49.6979C33.579 50.0827 33.3081 50.4109 32.9605 50.6403C32.6129 50.8696 32.2046 50.9897 31.7882 50.9851C31.3697 50.9869 30.9598 50.866 30.6093 50.6372C30.2589 50.4084 29.9832 50.0818 29.8165 49.6979C29.4279 48.7888 23.1778 33.9781 23.1778 33.9781C23.0627 33.7167 23.0022 33.4346 23.0001 33.149C22.9979 32.8634 23.0542 32.5803 23.1654 32.3172C23.2765 32.0542 23.4403 31.8166 23.6466 31.619C23.8529 31.4215 24.0974 31.2682 24.365 31.1686C24.6201 31.0645 24.8938 31.0138 25.1692 31.0196C25.4446 31.0253 25.7159 31.0874 25.9664 31.202C26.217 31.3165 26.4414 31.4812 26.6258 31.6858C26.8103 31.8903 26.9509 32.1305 27.0391 32.3915L31.831 43.2909L34.6833 36.5167C34.8544 36.1339 35.1326 35.8089 35.4843 35.5808C35.8361 35.3527 36.2464 35.2313 36.6657 35.2313C37.0849 35.2313 37.4952 35.3527 37.847 35.5808C38.1987 35.8089 38.4769 36.1339 38.648 36.5167L41.5217 43.2909L46.2887 32.3915C46.3785 32.1277 46.5216 31.8851 46.709 31.6789C46.8965 31.4726 47.1243 31.307 47.3783 31.1924C47.6323 31.0777 47.9072 31.0165 48.1859 31.0124C48.4645 31.0083 48.7411 31.0614 48.9984 31.1686C49.5246 31.3883 49.9437 31.8056 50.1657 32.3309C50.3877 32.8562 50.3949 33.4476 50.1856 33.9781Z" fill="#1C1259"></path></svg>