<svg width="1410" height="402" viewBox="0 0 1410 402" fill="none" xmlns="http://www.w3.org/2000/svg">
<g clip-path="url(#clip0)">
<g clip-path="url(#clip1)">
<path d="M0.820312 200.995C0.820312 90.5377 90.3634 0.994629 200.82 0.994629V0.994629C311.277 0.994629 400.82 90.5377 400.82 200.995V200.995C400.82 311.452 311.277 400.995 200.82 400.995V400.995C90.3634 400.995 0.820312 311.452 0.820312 200.995V200.995Z" fill="#222525"/>
<g clip-path="url(#clip2)">
<rect x="16.2489" y="16.4232" width="369.143" height="369.143" rx="184.571" stroke="white" stroke-width="30.8571"/>
<path d="M283.991 299.706H259.51L215.123 174.884C207.322 152.287 202.435 136.953 200.462 128.883C197.503 141.347 192.84 156.591 186.473 174.615L142.355 299.706H117.875L188.894 103.057H212.702L283.991 299.706Z" fill="#30D5C8"/>
<g filter="url(#filter0_d)">
<path d="M190.779 299.271L124.064 124.95H122.988C124.243 138.759 124.871 155.169 124.871 174.179V299.271H103.753V102.622H138.187L200.464 264.837H201.54L264.354 102.622H298.519V299.271H275.653V172.565C275.653 158.039 276.281 142.256 277.536 125.219H276.46L209.207 299.271H190.779Z" fill="white"/>
</g>
<g clip-path="url(#clip3)">
<g filter="url(#filter1_d)">
<path d="M284.017 299.092H259.537L215.15 174.27C207.348 151.673 202.461 136.339 200.488 128.269C197.529 140.733 192.866 155.977 186.5 174.001L142.381 299.092H117.901L188.921 102.444H212.728L284.017 299.092Z" fill="#30D5C8"/>
</g>
</g>
</g>
</g>
<path d="M544.774 307.428L478.054 133.106L476.978 133.105C478.234 146.915 478.862 163.325 478.863 182.335L478.866 307.426L457.749 307.426L457.743 110.777L492.177 110.778L554.458 272.995L555.534 272.995L618.344 110.781L652.509 110.782L652.514 307.431L629.648 307.431L629.645 180.725C629.645 166.198 630.272 150.416 631.527 133.379L630.451 133.379L563.202 307.429L544.774 307.428ZM866.254 208.844C866.255 240.318 858.275 265.067 842.314 283.091C826.442 301.114 804.339 310.126 776.003 310.125C747.039 310.124 724.666 301.291 708.883 283.625C693.19 265.87 685.343 240.851 685.342 208.57C685.341 176.557 693.232 151.763 709.013 134.188C724.795 116.523 747.213 107.691 776.266 107.692C804.513 107.693 826.572 116.661 842.444 134.595C858.317 152.53 866.253 177.279 866.254 208.844ZM709.553 208.839C709.554 235.472 715.204 255.693 726.503 269.502C737.892 283.222 754.391 290.083 776.002 290.083C797.792 290.084 814.247 283.225 825.365 269.505C836.484 255.786 842.043 235.565 842.043 208.843C842.042 182.39 836.482 162.348 825.362 148.718C814.332 134.998 797.967 128.138 776.267 128.137C754.477 128.136 737.888 135.041 726.5 148.85C715.202 162.569 709.553 182.566 709.553 208.839ZM1052.83 307.442L1026.73 307.442L919.259 142.399L918.183 142.399C919.618 161.768 920.336 179.523 920.336 195.664L920.339 307.439L899.221 307.438L899.216 110.789L925.042 110.79L1032.25 275.16L1033.32 275.16C1033.14 272.739 1032.74 264.983 1032.11 251.891C1031.48 238.709 1031.26 229.293 1031.44 223.644L1031.44 110.793L1052.82 110.793L1052.83 307.442ZM1408.08 207.245C1408.08 239.706 1399.25 264.544 1381.58 281.761C1364.01 298.888 1338.68 307.45 1305.59 307.449L1251.11 307.448L1251.11 110.799L1311.37 110.801C1341.94 110.802 1365.71 119.276 1382.66 136.224C1399.6 153.173 1408.08 176.846 1408.08 207.245ZM1383.87 208.051C1383.87 182.405 1377.41 163.081 1364.5 150.078C1351.67 137.075 1332.57 130.574 1307.2 130.573L1273.97 130.572L1273.98 287.676L1301.82 287.677C1329.08 287.678 1349.57 280.998 1363.29 267.637C1377.01 254.187 1383.87 234.325 1383.87 208.051Z" fill="white"/>
<path d="M1234.96 307.448L1210.48 307.447L1166.09 182.623C1158.29 160.026 1153.4 144.692 1151.43 136.622C1148.47 149.086 1143.81 164.33 1137.44 182.353L1093.33 307.444L1068.85 307.443L1139.86 110.796L1163.67 110.797L1234.96 307.448Z" fill="#30D5C8"/>
</g>
<defs>
<filter id="filter0_d" x="99.5667" y="98.4349" width="203.139" height="205.022" filterUnits="userSpaceOnUse" color-interpolation-filters="sRGB">
<feFlood flood-opacity="0" result="BackgroundImageFix"/>
<feColorMatrix in="SourceAlpha" type="matrix" values="0 0 0 0 0 0 0 0 0 0 0 0 0 0 0 0 0 0 127 0" result="hardAlpha"/>
<feOffset/>
<feGaussianBlur stdDeviation="2.09336"/>
<feColorMatrix type="matrix" values="0 0 0 0 0.133333 0 0 0 0 0.12549 0 0 0 0 0.129412 0 0 0 0.5 0"/>
<feBlend mode="normal" in2="BackgroundImageFix" result="effect1_dropShadow"/>
<feBlend mode="normal" in="SourceGraphic" in2="effect1_dropShadow" result="shape"/>
</filter>
<filter id="filter1_d" x="113.58" y="98.122" width="174.758" height="205.291" filterUnits="userSpaceOnUse" color-interpolation-filters="sRGB">
<feFlood flood-opacity="0" result="BackgroundImageFix"/>
<feColorMatrix in="SourceAlpha" type="matrix" values="0 0 0 0 0 0 0 0 0 0 0 0 0 0 0 0 0 0 127 0" result="hardAlpha"/>
<feOffset/>
<feGaussianBlur stdDeviation="2.16068"/>
<feColorMatrix type="matrix" values="0 0 0 0 0.133333 0 0 0 0 0.12549 0 0 0 0 0.129412 0 0 0 0.5 0"/>
<feBlend mode="normal" in2="BackgroundImageFix" result="effect1_dropShadow"/>
<feBlend mode="normal" in="SourceGraphic" in2="effect1_dropShadow" result="shape"/>
</filter>
<clipPath id="clip0">
<rect width="400.077" height="1408.55" fill="white" transform="translate(0.864502 401.092) rotate(-90.0049)"/>
</clipPath>
<clipPath id="clip1">
<path d="M0.820312 200.995C0.820312 90.5377 90.3634 0.994629 200.82 0.994629V0.994629C311.277 0.994629 400.82 90.5377 400.82 200.995V200.995C400.82 311.452 311.277 400.995 200.82 400.995V400.995C90.3634 400.995 0.820312 311.452 0.820312 200.995V200.995Z" fill="white"/>
</clipPath>
<clipPath id="clip2">
<rect width="400" height="400" fill="white" transform="translate(0.820312 0.994629)"/>
</clipPath>
<clipPath id="clip3">
<rect width="224.702" height="196.808" fill="white" transform="translate(180.118 102.723)"/>
</clipPath>
</defs>
</svg>
