<?xml version="1.0" encoding="utf-8"?><!DOCTYPE svg PUBLIC "-//W3C//DTD SVG 1.1//EN" "http://www.w3.org/Graphics/SVG/1.1/DTD/svg11.dtd"><svg xmlns="http://www.w3.org/2000/svg" width="600" height="600" viewBox="0 0 65 65" shape-rendering="crispEdges"><path fill="#ffffff" d="M0 0h65v65H0z"/><path stroke="#222525" d="M0 0.5h7m1 0h3m3 0h8m2 0h4m7 0h2m1 0h7m1 0h1m2 0h2m2 0h1m1 0h1m2 0h7M0 1.5h1m5 0h1m2 0h1m1 0h1m1 0h1m2 0h1m3 0h2m6 0h1m3 0h2m2 0h1m2 0h1m4 0h1m1 0h2m1 0h1m1 0h3m2 0h1m1 0h1m5 0h1M0 2.5h1m1 0h3m1 0h1m2 0h1m1 0h1m2 0h1m1 0h1m3 0h2m2 0h1m1 0h2m1 0h2m3 0h2m3 0h3m2 0h1m1 0h2m3 0h4m1 0h1m1 0h1m1 0h3m1 0h1M0 3.5h1m1 0h3m1 0h1m1 0h1m3 0h1m1 0h1m2 0h2m1 0h1m1 0h1m1 0h4m1 0h1m1 0h2m2 0h1m3 0h1m2 0h2m2 0h3m5 0h2m2 0h1m1 0h3m1 0h1M0 4.5h1m1 0h3m1 0h1m1 0h1m1 0h2m7 0h3m2 0h5m1 0h5m2 0h1m2 0h1m6 0h3m2 0h1m3 0h1m1 0h1m1 0h3m1 0h1M0 5.5h1m5 0h1m1 0h2m1 0h1m2 0h1m4 0h1m1 0h1m1 0h2m1 0h1m3 0h1m3 0h4m1 0h2m3 0h4m1 0h1m1 0h1m2 0h1m3 0h1m5 0h1M0 6.5h7m1 0h1m1 0h1m1 0h1m1 0h1m1 0h1m1 0h1m1 0h1m1 0h1m1 0h1m1 0h1m1 0h1m1 0h1m1 0h1m1 0h1m1 0h1m1 0h1m1 0h1m1 0h1m1 0h1m1 0h1m1 0h1m1 0h1m1 0h1m1 0h1m1 0h1m1 0h7M8 7.5h4m3 0h2m2 0h1m2 0h3m1 0h1m3 0h1m3 0h3m9 0h4m1 0h1m3 0h1M0 8.5h1m3 0h1m1 0h3m3 0h1m2 0h1m3 0h2m3 0h1m1 0h2m2 0h5m1 0h4m1 0h1m2 0h1m1 0h2m6 0h2m1 0h5m2 0h1M1 9.5h1m1 0h1m4 0h5m1 0h5m1 0h3m1 0h1m1 0h1m1 0h1m2 0h1m1 0h1m2 0h2m4 0h1m7 0h5m2 0h1m3 0h1M1 10.5h1m1 0h1m2 0h1m1 0h1m1 0h2m2 0h4m1 0h1m1 0h3m1 0h1m1 0h2m1 0h5m1 0h1m1 0h2m1 0h3m2 0h3m4 0h3m1 0h1m2 0h1m2 0h1M0 11.5h4m4 0h1m1 0h1m1 0h2m1 0h2m2 0h1m1 0h5m2 0h1m7 0h4m1 0h1m2 0h1m3 0h2m2 0h1m2 0h1m1 0h3m1 0h1m1 0h1M0 12.5h2m3 0h4m4 0h1m1 0h6m1 0h1m1 0h3m1 0h2m1 0h3m1 0h1m1 0h1m1 0h1m2 0h1m1 0h1m3 0h1m1 0h2m2 0h5m1 0h1M0 13.5h1m3 0h1m2 0h1m1 0h1m2 0h3m1 0h3m5 0h3m2 0h1m2 0h2m1 0h2m1 0h1m1 0h5m2 0h1m2 0h2m2 0h1m2 0h1m2 0h1M0 14.5h1m1 0h1m2 0h2m1 0h3m2 0h1m2 0h1m1 0h3m3 0h2m1 0h2m1 0h1m1 0h1m2 0h1m1 0h1m1 0h4m4 0h2m4 0h3m6 0h3M0 15.5h3m5 0h1m2 0h2m1 0h1m1 0h2m3 0h1m3 0h1m2 0h1m2 0h2m2 0h3m4 0h1m1 0h1m1 0h3m4 0h1m1 0h1m1 0h4m1 0h1m1 0h1M3 16.5h1m2 0h1m1 0h4m1 0h4m1 0h3m1 0h2m1 0h2m1 0h1m2 0h2m1 0h6m4 0h1m1 0h4m1 0h1m2 0h5m2 0h3M0 17.5h1m1 0h1m1 0h1m3 0h2m1 0h1m2 0h4m1 0h1m1 0h3m3 0h1m1 0h2m2 0h1m4 0h5m1 0h2m4 0h1m2 0h3m2 0h1m3 0h1M0 18.5h2m1 0h1m2 0h6m2 0h2m2 0h2m2 0h2m1 0h4m1 0h7m1 0h6m1 0h1m1 0h2m1 0h5m4 0h4m1 0h1M0 19.5h1m1 0h1m4 0h1m1 0h2m1 0h1m2 0h1m1 0h3m2 0h3m1 0h4m1 0h1m1 0h3m1 0h1m1 0h2m2 0h3m1 0h1m1 0h1m1 0h4m1 0h4m1 0h2M0 20.5h1m1 0h6m2 0h2m1 0h2m1 0h2m5 0h1m2 0h3m1 0h1m1 0h2m1 0h2m1 0h2m1 0h2m1 0h5m2 0h1m1 0h2m4 0h2m2 0h1M0 21.5h1m1 0h1m2 0h1m1 0h1m3 0h4m4 0h5m1 0h1m1 0h1m3 0h1m1 0h1m4 0h2m2 0h1m1 0h2m1 0h2m1 0h1m1 0h3m1 0h2m1 0h2m1 0h2M0 22.5h2m4 0h2m1 0h1m3 0h3m1 0h1m1 0h2m5 0h4m1 0h5m2 0h2m2 0h1m1 0h1m2 0h2m2 0h1m2 0h1m3 0h1m3 0h2M1 23.5h5m3 0h7m5 0h1m2 0h2m1 0h1m4 0h2m1 0h1m1 0h1m5 0h1m1 0h1m1 0h4m2 0h3m1 0h1m2 0h3m1 0h1M0 24.5h1m4 0h3m2 0h1m3 0h3m1 0h1m1 0h7m1 0h2m2 0h2m1 0h3m3 0h1m2 0h2m3 0h1m7 0h2m1 0h2M1 25.5h1m2 0h1m2 0h1m2 0h5m2 0h6m2 0h3m4 0h1m2 0h2m1 0h1m1 0h4m1 0h3m1 0h3m1 0h2m1 0h2m1 0h1m2 0h2M1 26.5h1m3 0h2m1 0h2m1 0h2m3 0h1m2 0h3m1 0h13m2 0h1m1 0h4m1 0h1m6 0h2m1 0h1m3 0h2m3 0h1M0 27.5h1m2 0h1m1 0h1m1 0h2m1 0h1m1 0h1m1 0h1m1 0h1m5 0h5m1 0h5m1 0h1m1 0h2m1 0h4m1 0h1m2 0h4m1 0h1m3 0h1m2 0h1m1 0h1m1 0h1M1 28.5h1m1 0h1m2 0h2m1 0h1m2 0h1m4 0h1m1 0h1m1 0h1m2 0h4m3 0h2m3 0h1m8 0h1m2 0h3m2 0h1m6 0h4M0 29.5h4m1 0h1m2 0h2m1 0h1m1 0h2m1 0h3m3 0h1m1 0h2m4 0h3m2 0h2m1 0h3m1 0h3m1 0h4m1 0h4m1 0h1m3 0h1m3 0h1M0 30.5h2m2 0h7m1 0h1m2 0h1m3 0h2m3 0h1m1 0h1m1 0h7m3 0h4m1 0h1m2 0h1m2 0h1m1 0h4m1 0h7m1 0h1M0 31.5h1m2 0h2m3 0h9m2 0h7m1 0h2m1 0h1m3 0h2m1 0h1m1 0h1m1 0h3m1 0h3m1 0h4m1 0h3m3 0h2m2 0h1M1 32.5h2m1 0h1m1 0h1m1 0h2m1 0h4m5 0h1m2 0h1m1 0h1m2 0h1m1 0h1m1 0h1m1 0h2m1 0h4m3 0h2m2 0h7m1 0h1m1 0h1m1 0h1m1 0h1M0 33.5h1m2 0h2m3 0h5m6 0h2m4 0h2m1 0h1m1 0h1m3 0h1m4 0h5m1 0h1m1 0h3m1 0h1m3 0h2m3 0h2M3 34.5h6m2 0h4m3 0h1m1 0h1m1 0h1m1 0h1m2 0h1m1 0h6m1 0h2m4 0h1m2 0h2m1 0h1m4 0h2m1 0h5m1 0h3M1 35.5h1m2 0h2m3 0h2m1 0h2m3 0h1m1 0h2m2 0h3m1 0h1m1 0h3m1 0h5m1 0h1m1 0h1m2 0h1m1 0h2m1 0h1m4 0h2m5 0h1m2 0h1M0 36.5h1m3 0h3m3 0h3m1 0h1m1 0h2m1 0h1m3 0h1m1 0h2m2 0h1m1 0h1m1 0h1m2 0h4m1 0h1m1 0h2m2 0h1m2 0h2m1 0h2m1 0h1m2 0h1m2 0h3M0 37.5h2m2 0h1m2 0h1m4 0h2m3 0h2m2 0h3m2 0h2m2 0h1m1 0h1m1 0h1m5 0h1m1 0h2m2 0h1m3 0h1m2 0h5m3 0h3M0 38.5h3m1 0h1m1 0h1m8 0h1m1 0h1m1 0h5m1 0h1m1 0h1m1 0h1m1 0h4m3 0h1m3 0h1m3 0h1m3 0h2m1 0h1m2 0h1m1 0h1m1 0h1m2 0h2M0 39.5h1m1 0h1m1 0h2m1 0h2m1 0h3m1 0h1m4 0h1m1 0h2m2 0h2m3 0h7m3 0h1m3 0h6m1 0h2m2 0h5m2 0h3M0 40.5h1m3 0h1m1 0h1m2 0h1m1 0h2m3 0h1m1 0h1m1 0h4m2 0h1m2 0h2m2 0h5m2 0h1m3 0h1m1 0h1m2 0h1m2 0h1m1 0h4m2 0h4M0 41.5h2m1 0h1m3 0h1m1 0h1m4 0h1m4 0h2m3 0h4m1 0h4m1 0h1m2 0h2m2 0h2m1 0h1m2 0h1m1 0h1m2 0h2m4 0h3m1 0h3M1 42.5h4m1 0h1m2 0h1m1 0h1m2 0h3m3 0h3m2 0h5m2 0h1m3 0h1m2 0h1m4 0h3m2 0h1m3 0h3m2 0h1m2 0h2m1 0h1M1 43.5h2m1 0h1m3 0h1m1 0h2m1 0h2m2 0h1m1 0h1m1 0h1m4 0h1m1 0h4m1 0h5m5 0h3m1 0h1m1 0h2m3 0h6m1 0h1m1 0h2M0 44.5h1m4 0h3m1 0h1m2 0h1m3 0h1m3 0h1m2 0h2m3 0h1m3 0h2m2 0h4m1 0h2m1 0h5m1 0h1m6 0h1m2 0h3M1 45.5h1m1 0h1m4 0h2m2 0h2m1 0h1m1 0h1m2 0h2m2 0h4m2 0h3m1 0h1m1 0h1m1 0h1m3 0h1m1 0h2m4 0h2m2 0h2m1 0h2m1 0h1m2 0h2M2 46.5h5m7 0h3m1 0h5m2 0h2m1 0h1m1 0h2m1 0h1m1 0h1m3 0h2m1 0h1m1 0h1m2 0h1m4 0h1m1 0h1m3 0h3m1 0h1m1 0h1M1 47.5h4m3 0h2m2 0h2m2 0h4m1 0h1m1 0h1m1 0h4m1 0h1m3 0h1m1 0h1m1 0h1m2 0h1m2 0h1m1 0h1m1 0h2m7 0h2m1 0h1m1 0h3M0 48.5h1m2 0h4m1 0h2m1 0h2m2 0h4m2 0h2m1 0h2m1 0h3m1 0h1m1 0h4m1 0h2m1 0h1m2 0h2m2 0h1m1 0h2m1 0h3m2 0h1m1 0h3m1 0h1M0 49.5h2m1 0h1m1 0h1m2 0h1m1 0h1m2 0h1m3 0h1m3 0h1m4 0h2m2 0h1m1 0h1m1 0h2m2 0h1m1 0h1m1 0h2m1 0h1m4 0h2m2 0h1m3 0h1m3 0h2M3 50.5h1m1 0h5m3 0h1m1 0h2m1 0h1m3 0h5m1 0h1m1 0h6m2 0h1m2 0h2m7 0h1m3 0h1m4 0h3m2 0h1M1 51.5h5m1 0h1m1 0h4m1 0h2m1 0h1m2 0h2m1 0h2m2 0h1m1 0h1m1 0h1m5 0h1m1 0h2m1 0h3m1 0h2m1 0h5m1 0h1m4 0h2m2 0h1M2 52.5h1m2 0h4m1 0h7m3 0h1m1 0h2m4 0h1m2 0h1m1 0h1m1 0h3m1 0h1m1 0h2m1 0h1m2 0h2m5 0h3m3 0h1m2 0h2M2 53.5h3m2 0h1m2 0h2m1 0h1m2 0h2m2 0h2m1 0h1m2 0h2m1 0h2m2 0h1m1 0h5m1 0h5m1 0h2m1 0h9m1 0h1m1 0h2M2 54.5h2m1 0h5m1 0h3m1 0h2m2 0h2m1 0h1m2 0h1m3 0h1m4 0h1m3 0h1m3 0h2m3 0h1m1 0h1m1 0h1m1 0h5m1 0h1m2 0h1m1 0h1M0 55.5h1m2 0h1m3 0h1m2 0h3m2 0h1m1 0h1m5 0h1m2 0h2m1 0h1m2 0h1m1 0h1m1 0h4m4 0h2m2 0h4m3 0h2m2 0h1m4 0h1M1 56.5h2m1 0h1m1 0h2m1 0h2m2 0h3m2 0h1m1 0h2m2 0h2m1 0h10m2 0h3m2 0h1m1 0h1m1 0h3m1 0h2m1 0h6m3 0h1M8 57.5h2m8 0h1m2 0h3m4 0h3m3 0h1m3 0h1m1 0h6m3 0h1m1 0h4m1 0h1m3 0h3m1 0h1M0 58.5h7m1 0h5m1 0h1m2 0h1m5 0h1m1 0h1m3 0h2m1 0h1m1 0h2m4 0h4m1 0h2m3 0h7m1 0h1m1 0h2m1 0h2M0 59.5h1m5 0h1m2 0h2m3 0h1m3 0h1m1 0h3m2 0h1m1 0h2m1 0h1m3 0h4m1 0h1m2 0h4m4 0h5m1 0h1m3 0h2M0 60.5h1m1 0h3m1 0h1m1 0h1m1 0h3m2 0h2m3 0h1m1 0h1m1 0h3m2 0h6m2 0h1m1 0h2m1 0h1m4 0h4m3 0h1m1 0h8M0 61.5h1m1 0h3m1 0h1m2 0h1m5 0h1m1 0h7m1 0h1m1 0h2m1 0h2m3 0h1m2 0h1m1 0h1m2 0h2m1 0h1m1 0h1m1 0h1m2 0h1m4 0h1m1 0h3M0 62.5h1m1 0h3m1 0h1m2 0h2m1 0h4m1 0h1m2 0h1m2 0h2m1 0h2m1 0h1m1 0h1m1 0h3m3 0h5m5 0h4m1 0h2m6 0h3M0 63.5h1m5 0h1m3 0h2m2 0h1m3 0h1m2 0h1m2 0h1m1 0h1m7 0h2m3 0h1m6 0h2m1 0h1m1 0h1m2 0h1m3 0h2m1 0h1m1 0h1M0 64.5h7m1 0h1m2 0h3m3 0h3m1 0h1m2 0h1m4 0h2m1 0h1m1 0h1m1 0h3m1 0h5m2 0h1m2 0h5m1 0h1m1 0h5"/></svg>
