<svg width="362" height="362" viewBox="0 0 362 362" fill="none" xmlns="http://www.w3.org/2000/svg">
<g clip-path="url(#clip0_929_132)">
<rect width="360" height="360" transform="translate(1.01562 361.016) rotate(-90.0049)" fill="#1D1D1D"/>
<g clip-path="url(#clip1_929_132)">
<g clip-path="url(#clip2_929_132)">
<path d="M298.966 180.623C298.967 200.428 296.449 218.473 291.412 234.758C286.374 250.926 278.875 264.865 268.915 276.576C259.072 288.17 246.827 297.125 232.179 303.442C217.531 309.758 200.539 312.909 181.203 312.893C161.281 312.878 143.878 309.7 128.995 303.36C114.229 297.02 101.924 287.987 92.0789 276.26C82.3515 264.534 75.0262 250.524 70.103 234.231C65.2971 217.938 62.8933 199.889 62.8918 180.085C62.8897 153.835 67.2239 130.811 75.8942 111.013C84.5646 91.2152 97.6884 75.8154 115.266 64.8137C132.96 53.8121 155.108 48.3219 181.71 48.343C207.139 48.3631 228.526 53.8293 245.871 64.7415C263.333 75.6538 276.518 91.0158 285.425 110.828C294.45 130.522 298.964 153.787 298.966 180.623ZM94.3566 180.461C94.3583 202.258 97.4653 221.128 103.677 237.07C109.89 253.013 119.383 265.325 132.157 274.007C145.048 282.689 161.396 287.038 181.201 287.053C201.123 287.069 217.411 282.746 230.067 274.084C242.84 265.423 252.272 253.125 258.365 237.193C264.457 221.26 267.503 202.395 267.501 180.598C267.499 147.434 260.524 121.53 246.577 102.887C232.748 84.1256 211.126 74.7335 181.712 74.7102C161.79 74.6944 145.384 78.9587 132.494 87.5032C119.604 96.0476 109.996 108.228 103.669 124.043C97.4589 139.741 94.3549 158.547 94.3566 180.461Z" fill="white"/>
</g>
<mask id="path-2-outside-1_929_132" maskUnits="userSpaceOnUse" x="148.986" y="141.941" width="65" height="74" fill="black">
<rect fill="white" x="148.986" y="141.941" width="65" height="74"/>
<path d="M154.092 178.457C154.092 171.426 155.146 165.625 157.256 161.054C159.482 156.367 162.588 152.851 166.572 150.508C170.557 148.164 175.361 146.992 180.986 146.992C186.611 146.992 191.416 148.222 195.4 150.683C199.502 153.027 202.607 156.543 204.717 161.23C206.943 165.918 208.057 171.66 208.057 178.457C208.057 185.019 206.943 190.703 204.717 195.508C202.607 200.195 199.502 203.828 195.4 206.406C191.416 208.867 186.611 210.097 180.986 210.097C175.361 210.097 170.557 208.867 166.572 206.406C162.588 203.945 159.482 200.371 157.256 195.683C155.146 190.996 154.092 185.254 154.092 178.457Z"/>
</mask>
<path d="M154.092 178.457C154.092 171.426 155.146 165.625 157.256 161.054C159.482 156.367 162.588 152.851 166.572 150.508C170.557 148.164 175.361 146.992 180.986 146.992C186.611 146.992 191.416 148.222 195.4 150.683C199.502 153.027 202.607 156.543 204.717 161.23C206.943 165.918 208.057 171.66 208.057 178.457C208.057 185.019 206.943 190.703 204.717 195.508C202.607 200.195 199.502 203.828 195.4 206.406C191.416 208.867 186.611 210.097 180.986 210.097C175.361 210.097 170.557 208.867 166.572 206.406C162.588 203.945 159.482 200.371 157.256 195.683C155.146 190.996 154.092 185.254 154.092 178.457Z" fill="white"/>
<path d="M157.256 161.054L152.739 158.909L152.728 158.934L152.716 158.959L157.256 161.054ZM195.4 150.683L192.773 154.937L192.846 154.982L192.92 155.025L195.4 150.683ZM204.717 161.23L200.157 163.282L200.178 163.329L200.2 163.376L204.717 161.23ZM204.717 195.508L200.18 193.405L200.169 193.43L200.157 193.456L204.717 195.508ZM195.4 206.406L198.028 210.66L198.045 210.65L198.061 210.639L195.4 206.406ZM157.256 195.683L152.696 197.735L152.717 197.782L152.739 197.829L157.256 195.683ZM159.092 178.457C159.092 171.88 160.085 166.857 161.796 163.15L152.716 158.959C150.208 164.393 149.092 170.971 149.092 178.457L159.092 178.457ZM161.772 163.2C163.624 159.301 166.089 156.593 169.107 154.817L164.037 146.198C159.087 149.11 155.341 153.433 152.739 158.909L161.772 163.2ZM169.107 154.817C172.173 153.014 176.06 151.992 180.986 151.992L180.986 141.992C174.663 141.992 168.941 143.313 164.037 146.198L169.107 154.817ZM180.986 151.992C185.871 151.992 189.724 153.054 192.773 154.937L198.028 146.429C193.108 143.391 187.351 141.992 180.986 141.992L180.986 151.992ZM192.92 155.025C196.022 156.797 198.441 159.469 200.157 163.282L209.276 159.178C206.774 153.617 202.982 149.257 197.881 146.342L192.92 155.025ZM200.2 163.376C202.026 167.219 203.057 172.182 203.057 178.457L213.057 178.457C213.057 171.138 211.861 164.617 209.233 159.085L200.2 163.376ZM203.057 178.457C203.057 184.463 202.038 189.397 200.18 193.405L209.253 197.61C211.849 192.008 213.057 185.576 213.057 178.457L203.057 178.457ZM200.157 193.456C198.426 197.303 195.955 200.152 192.74 202.173L198.061 210.639C203.049 207.504 206.789 203.088 209.276 197.559L200.157 193.456ZM192.773 202.152C189.724 204.035 185.871 205.097 180.986 205.097L180.986 215.097C187.351 215.097 193.108 213.699 198.028 210.66L192.773 202.152ZM180.986 205.097C176.101 205.097 172.249 204.035 169.2 202.152L163.945 210.66C168.865 213.699 174.621 215.097 180.986 215.097L180.986 205.097ZM169.2 202.152C166.122 200.251 163.632 197.453 161.772 193.538L152.739 197.829C155.333 203.289 159.054 207.639 163.945 210.66L169.2 202.152ZM161.815 193.632C160.074 189.761 159.092 184.763 159.092 178.457L149.092 178.457C149.092 185.744 150.219 192.23 152.696 197.735L161.815 193.632Z" fill="#1D1D1D" mask="url(#path-2-outside-1_929_132)"/>
</g>
</g>
<defs>
<clipPath id="clip0_929_132">
<rect width="360" height="360" fill="white" transform="translate(1.01562 361.016) rotate(-90.0049)"/>
</clipPath>
<clipPath id="clip1_929_132">
<rect width="360" height="360" fill="white" transform="translate(1 349) rotate(-90.0049)"/>
</clipPath>
<clipPath id="clip2_929_132">
<rect width="360" height="360" fill="white" transform="translate(1.03125 350.031) rotate(-90.0049)"/>
</clipPath>
</defs>
</svg>
