<svg width="362" height="362" viewBox="0 0 362 362" fill="none" xmlns="http://www.w3.org/2000/svg">
<g clip-path="url(#clip0_929_132)">
<rect width="360" height="360" transform="translate(1.01562 361.016) rotate(-90.0049)" fill="#1D1D1D"/>
<g clip-path="url(#clip1_929_132)">
<path d="M296.79 188.236C296.791 208.04 294.273 226.086 289.235 242.371C284.197 258.54 276.699 272.48 266.739 284.192C256.896 295.786 244.65 304.743 230.002 311.061C215.354 317.379 198.362 320.531 179.026 320.518C159.105 320.504 141.702 317.328 126.819 310.99C112.053 304.652 99.7473 295.62 89.9026 283.894C80.1752 272.169 72.8499 258.16 67.9267 241.867C63.1208 225.575 60.7171 207.526 60.7156 187.722C60.7136 161.472 65.0477 138.447 73.7181 118.649C82.3884 98.8499 95.5123 83.4488 113.09 72.4453C130.784 61.4418 152.932 55.9493 179.534 55.9676C204.963 55.9851 226.35 61.449 243.695 72.3594C261.157 83.2698 274.341 98.6305 283.249 118.441C292.274 138.135 296.788 161.4 296.79 188.236ZM92.1804 188.095C92.1821 209.892 95.289 228.761 101.501 244.703C107.713 260.645 117.206 272.956 129.981 281.637C142.872 290.317 159.22 294.665 179.025 294.678C198.946 294.692 215.235 290.367 227.891 281.704C240.663 273.041 250.096 260.743 256.189 244.809C262.281 228.876 265.327 210.011 265.325 188.214C265.322 155.05 258.348 129.147 244.401 110.504C230.571 91.7449 208.95 82.355 179.536 82.3347C159.614 82.321 143.208 86.5871 130.318 95.1329C117.428 103.679 107.819 115.86 101.493 131.676C95.2828 147.374 92.1788 166.181 92.1804 188.095Z" fill="white"/>
</g>
<mask id="path-2-outside-1_929_132" maskUnits="userSpaceOnUse" x="148.986" y="152.941" width="65" height="74" fill="black">
<rect fill="white" x="148.986" y="152.941" width="65" height="74"/>
<path d="M154.092 189.457C154.092 182.426 155.146 176.625 157.256 172.054C159.482 167.367 162.588 163.851 166.572 161.508C170.557 159.164 175.361 157.992 180.986 157.992C186.611 157.992 191.416 159.222 195.4 161.683C199.502 164.027 202.607 167.543 204.717 172.23C206.943 176.918 208.057 182.66 208.057 189.457C208.057 196.019 206.943 201.703 204.717 206.508C202.607 211.195 199.502 214.828 195.4 217.406C191.416 219.867 186.611 221.097 180.986 221.097C175.361 221.097 170.557 219.867 166.572 217.406C162.588 214.945 159.482 211.371 157.256 206.683C155.146 201.996 154.092 196.254 154.092 189.457Z"/>
</mask>
<path d="M154.092 189.457C154.092 182.426 155.146 176.625 157.256 172.054C159.482 167.367 162.588 163.851 166.572 161.508C170.557 159.164 175.361 157.992 180.986 157.992C186.611 157.992 191.416 159.222 195.4 161.683C199.502 164.027 202.607 167.543 204.717 172.23C206.943 176.918 208.057 182.66 208.057 189.457C208.057 196.019 206.943 201.703 204.717 206.508C202.607 211.195 199.502 214.828 195.4 217.406C191.416 219.867 186.611 221.097 180.986 221.097C175.361 221.097 170.557 219.867 166.572 217.406C162.588 214.945 159.482 211.371 157.256 206.683C155.146 201.996 154.092 196.254 154.092 189.457Z" fill="white"/>
<path d="M157.256 172.054L152.739 169.909L152.728 169.934L152.716 169.959L157.256 172.054ZM195.4 161.683L192.773 165.937L192.846 165.982L192.92 166.025L195.4 161.683ZM204.717 172.23L200.157 174.282L200.178 174.329L200.2 174.376L204.717 172.23ZM204.717 206.508L200.18 204.405L200.169 204.43L200.157 204.456L204.717 206.508ZM195.4 217.406L198.028 221.66L198.045 221.65L198.061 221.639L195.4 217.406ZM157.256 206.683L152.696 208.735L152.717 208.782L152.739 208.829L157.256 206.683ZM159.092 189.457C159.092 182.88 160.085 177.857 161.796 174.15L152.716 169.959C150.208 175.393 149.092 181.971 149.092 189.457L159.092 189.457ZM161.772 174.2C163.624 170.301 166.089 167.593 169.107 165.817L164.037 157.198C159.087 160.11 155.341 164.433 152.739 169.909L161.772 174.2ZM169.107 165.817C172.173 164.014 176.06 162.992 180.986 162.992L180.986 152.992C174.663 152.992 168.941 154.313 164.037 157.198L169.107 165.817ZM180.986 162.992C185.871 162.992 189.724 164.054 192.773 165.937L198.028 157.429C193.108 154.391 187.351 152.992 180.986 152.992L180.986 162.992ZM192.92 166.025C196.022 167.797 198.441 170.469 200.157 174.282L209.276 170.178C206.774 164.617 202.982 160.257 197.881 157.342L192.92 166.025ZM200.2 174.376C202.026 178.219 203.057 183.182 203.057 189.457L213.057 189.457C213.057 182.138 211.861 175.617 209.233 170.085L200.2 174.376ZM203.057 189.457C203.057 195.463 202.038 200.397 200.18 204.405L209.253 208.61C211.849 203.008 213.057 196.576 213.057 189.457L203.057 189.457ZM200.157 204.456C198.426 208.303 195.955 211.152 192.74 213.173L198.061 221.639C203.049 218.504 206.789 214.088 209.276 208.559L200.157 204.456ZM192.773 213.152C189.724 215.035 185.871 216.097 180.986 216.097L180.986 226.097C187.351 226.097 193.108 224.699 198.028 221.66L192.773 213.152ZM180.986 216.097C176.101 216.097 172.249 215.035 169.2 213.152L163.945 221.66C168.865 224.699 174.621 226.097 180.986 226.097L180.986 216.097ZM169.2 213.152C166.122 211.251 163.632 208.453 161.772 204.538L152.739 208.829C155.333 214.289 159.054 218.639 163.945 221.66L169.2 213.152ZM161.815 204.632C160.074 200.761 159.092 195.763 159.092 189.457L149.092 189.457C149.092 196.744 150.219 203.23 152.696 208.735L161.815 204.632Z" fill="#1D1D1D" mask="url(#path-2-outside-1_929_132)"/>
</g>
<defs>
<clipPath id="clip0_929_132">
<rect width="360" height="360" fill="white" transform="translate(1.01562 361.016) rotate(-90.0049)"/>
</clipPath>
<clipPath id="clip1_929_132">
<rect width="360" height="360" fill="white" transform="translate(1 361) rotate(-90.0049)"/>
</clipPath>
</defs>
</svg>
