<svg width="752" height="301" viewBox="0 0 752 301" fill="none" xmlns="http://www.w3.org/2000/svg">
<g clip-path="url(#clip0_1150_39)">
<rect width="300.221" height="750" transform="translate(1.01221 300.276) rotate(-90.0049)" fill="white"/>
<rect x="47.5006" y="256.501" width="211.854" height="656.991" transform="rotate(-90.0049 47.5006 256.501)" stroke="#111827" stroke-width="13"/>
<path d="M108.601 130.946L108.605 206.679L94.9087 206.676L94.9024 93.1584L115.125 93.1615L145.341 171.88C146.416 175.049 147.436 178.459 148.403 182.112C149.424 185.711 150.096 188.316 150.418 189.927C150.74 188.477 151.277 186.49 152.029 183.966C152.781 181.387 153.533 178.917 154.284 176.554C155.036 174.191 155.573 172.633 155.896 171.881L185.54 93.1723L205.278 93.1753L205.285 206.693L191.427 206.691L191.423 130.959C191.423 126.769 191.476 122.66 191.584 118.632C191.744 114.604 191.932 110.656 192.147 106.789C190.804 111.569 189.542 115.866 188.361 119.679C187.233 123.439 186.132 126.661 185.058 129.347L155.736 206.686L144.94 206.684L115.207 129.336L108.035 106.776C108.143 110.804 108.251 114.833 108.358 118.861C108.52 122.889 108.601 126.918 108.601 130.946ZM331.013 149.43C331.014 161.246 328.705 171.585 324.086 180.447C319.522 189.255 313.023 196.102 304.591 200.988C296.158 205.875 286.168 208.317 274.62 208.315C263.019 208.314 253.001 205.895 244.569 201.06C236.189 196.171 229.717 189.322 225.151 180.512C220.639 171.703 218.382 161.336 218.382 149.413C218.381 137.274 220.609 126.908 225.067 118.315C229.578 109.668 236.023 103.036 244.402 98.4181C252.834 93.8002 262.959 91.4922 274.775 91.494C286.376 91.4958 296.367 93.8606 304.746 98.5885C313.179 103.263 319.651 109.924 324.164 118.572C328.73 127.22 331.013 137.506 331.013 149.43ZM315.303 149.427C315.302 135.302 311.757 124.21 304.666 116.152C297.63 108.094 287.666 104.064 274.776 104.062C261.778 104.06 251.734 108.033 244.644 115.982C237.555 123.93 234.011 135.074 234.011 149.415C234.012 158.868 235.624 167.086 238.847 174.069C242.07 180.998 246.716 186.37 252.786 190.185C258.855 193.945 266.133 195.826 274.62 195.828C287.725 195.83 297.769 191.803 304.751 183.747C311.786 175.638 315.304 164.198 315.303 149.427ZM282.673 140.238L282.674 157.882L266.964 157.88L266.963 140.236L282.673 140.238ZM357.97 131.307L357.974 206.717L344.278 206.715L344.272 93.1965L362.157 93.1993L423.554 190.533C422.909 179.952 422.587 172.325 422.586 167.652L422.582 93.2085L436.44 93.2106L436.446 206.729L417.916 206.726L357.163 110.037C357.271 113.582 357.432 117.127 357.647 120.672C357.862 124.217 357.97 127.762 357.97 131.307ZM489.986 126.734L458.731 206.652L442.537 206.649L488.856 93.1381L504.808 93.1405L551.14 206.666L534.946 206.663L503.682 126.737C502.393 123.406 501.211 120.076 500.137 116.746C499.116 113.362 498.042 110.005 496.914 106.674C496.162 108.877 495.41 111.105 494.658 113.361C493.96 115.617 493.208 117.873 492.403 120.128C491.651 122.33 490.845 124.532 489.986 126.734ZM654.955 148.835C654.956 160.812 652.62 171.125 647.947 179.771C643.329 188.418 636.857 195.077 628.532 199.749C620.261 204.42 610.647 206.755 599.69 206.754L557.231 206.747L557.225 93.2291L594.769 93.2349C613.997 93.2378 628.822 98.0741 639.242 107.744C649.716 117.359 654.954 131.057 654.955 148.835ZM639.486 148.833C639.485 134.76 635.618 124.044 627.883 116.685C620.202 109.271 609.057 105.564 594.447 105.561L572.614 105.558L572.619 194.423L597.916 194.427C606.349 194.428 613.654 192.576 619.83 188.871C626.06 185.166 630.894 179.903 634.331 173.082C637.768 166.261 639.487 158.178 639.486 148.833Z" fill="#111827"/>
<rect width="169" height="41" transform="translate(544 222)" fill="white"/>
<path d="M554.163 260.457C554.163 259.336 554.45 258.55 555.024 258.099C555.612 257.634 556.323 257.401 557.157 257.401C557.991 257.401 558.702 257.634 559.29 258.099C559.891 258.55 560.192 259.336 560.192 260.457C560.192 261.551 559.891 262.344 559.29 262.836C558.702 263.314 557.991 263.554 557.157 263.554C556.323 263.554 555.612 263.314 555.024 262.836C554.45 262.344 554.163 261.551 554.163 260.457ZM579.543 256.52C579.543 258.01 579.181 259.268 578.456 260.293C577.732 261.318 576.672 262.098 575.278 262.631C573.897 263.15 572.202 263.41 570.192 263.41C568.606 263.41 567.239 263.294 566.09 263.062C564.955 262.843 563.882 262.501 562.871 262.036V257.873C563.951 258.379 565.161 258.816 566.5 259.186C567.854 259.555 569.132 259.739 570.335 259.739C571.921 259.739 573.063 259.493 573.76 259.001C574.457 258.495 574.806 257.825 574.806 256.991C574.806 256.499 574.662 256.062 574.375 255.679C574.102 255.282 573.582 254.879 572.817 254.469C572.065 254.045 570.957 253.539 569.495 252.951C568.059 252.377 566.849 251.803 565.865 251.229C564.88 250.654 564.135 249.964 563.629 249.157C563.123 248.337 562.871 247.291 562.871 246.02C562.871 244.01 563.663 242.485 565.249 241.446C566.849 240.394 568.961 239.867 571.586 239.867C572.981 239.867 574.293 240.011 575.524 240.298C576.768 240.571 577.985 240.975 579.174 241.508L577.657 245.138C576.631 244.687 575.599 244.317 574.56 244.03C573.535 243.729 572.489 243.579 571.422 243.579C570.178 243.579 569.228 243.771 568.572 244.153C567.929 244.536 567.608 245.083 567.608 245.794C567.608 246.327 567.765 246.778 568.079 247.147C568.394 247.517 568.934 247.886 569.7 248.255C570.479 248.624 571.559 249.082 572.94 249.629C574.293 250.148 575.462 250.695 576.447 251.27C577.445 251.83 578.21 252.521 578.744 253.341C579.277 254.161 579.543 255.221 579.543 256.52ZM579.228 240.298H584.478L589.133 253.259C589.338 253.847 589.522 254.428 589.687 255.002C589.864 255.562 590.015 256.116 590.138 256.663C590.274 257.21 590.384 257.757 590.466 258.304H590.589C590.726 257.593 590.917 256.8 591.163 255.925C591.423 255.036 591.71 254.147 592.024 253.259L596.495 240.298H601.684L591.942 266.117C591.382 267.594 590.691 268.852 589.871 269.891C589.064 270.943 588.107 271.736 587 272.27C585.893 272.816 584.628 273.09 583.206 273.09C582.522 273.09 581.928 273.049 581.422 272.967C580.916 272.898 580.485 272.823 580.13 272.741V268.886C580.417 268.954 580.779 269.016 581.217 269.07C581.654 269.125 582.105 269.152 582.57 269.152C583.432 269.152 584.177 268.981 584.806 268.64C585.435 268.298 585.968 267.812 586.405 267.184C586.843 266.568 587.205 265.864 587.492 265.071L588.292 262.938L579.228 240.298ZM618.287 256.52C618.287 258.01 617.924 259.268 617.2 260.293C616.475 261.318 615.416 262.098 614.021 262.631C612.64 263.15 610.945 263.41 608.935 263.41C607.349 263.41 605.982 263.294 604.834 263.062C603.699 262.843 602.626 262.501 601.614 262.036V257.873C602.694 258.379 603.904 258.816 605.244 259.186C606.597 259.555 607.876 259.739 609.079 259.739C610.665 259.739 611.806 259.493 612.504 259.001C613.201 258.495 613.549 257.825 613.549 256.991C613.549 256.499 613.406 256.062 613.119 255.679C612.845 255.282 612.326 254.879 611.56 254.469C610.808 254.045 609.701 253.539 608.238 252.951C606.802 252.377 605.592 251.803 604.608 251.229C603.624 250.654 602.879 249.964 602.373 249.157C601.867 248.337 601.614 247.291 601.614 246.02C601.614 244.01 602.407 242.485 603.993 241.446C605.592 240.394 607.705 239.867 610.33 239.867C611.724 239.867 613.037 240.011 614.267 240.298C615.511 240.571 616.728 240.975 617.918 241.508L616.4 245.138C615.375 244.687 614.342 244.317 613.303 244.03C612.278 243.729 611.232 243.579 610.166 243.579C608.921 243.579 607.971 243.771 607.315 244.153C606.672 244.536 606.351 245.083 606.351 245.794C606.351 246.327 606.508 246.778 606.823 247.147C607.137 247.517 607.677 247.886 608.443 248.255C609.222 248.624 610.302 249.082 611.683 249.629C613.037 250.148 614.206 250.695 615.19 251.27C616.188 251.83 616.954 252.521 617.487 253.341C618.02 254.161 618.287 255.221 618.287 256.52ZM629.845 259.514C630.474 259.514 631.096 259.459 631.711 259.35C632.326 259.227 632.887 259.083 633.393 258.919V262.569C632.86 262.802 632.169 263 631.321 263.164C630.474 263.328 629.592 263.41 628.676 263.41C627.391 263.41 626.236 263.198 625.21 262.774C624.185 262.337 623.371 261.592 622.77 260.539C622.168 259.486 621.867 258.03 621.867 256.171V243.969H618.771V241.815L622.093 240.113L623.672 235.253H626.707V240.298H633.208V243.969H626.707V256.109C626.707 257.258 626.994 258.112 627.569 258.673C628.143 259.233 628.902 259.514 629.845 259.514ZM644.951 239.867C646.974 239.867 648.711 240.284 650.16 241.118C651.609 241.952 652.723 243.135 653.503 244.666C654.282 246.197 654.672 248.029 654.672 250.162V252.746H639.516C639.571 254.947 640.159 256.643 641.28 257.832C642.415 259.021 644.001 259.616 646.038 259.616C647.487 259.616 648.786 259.479 649.934 259.206C651.096 258.919 652.293 258.502 653.523 257.955V261.872C652.388 262.405 651.233 262.795 650.057 263.041C648.882 263.287 647.473 263.41 645.833 263.41C643.604 263.41 641.642 262.979 639.947 262.118C638.265 261.243 636.946 259.944 635.989 258.222C635.046 256.499 634.574 254.359 634.574 251.803C634.574 249.26 635.005 247.1 635.866 245.322C636.727 243.545 637.937 242.191 639.496 241.262C641.054 240.332 642.873 239.867 644.951 239.867ZM644.951 243.497C643.433 243.497 642.203 243.989 641.26 244.974C640.33 245.958 639.783 247.4 639.619 249.301H649.955C649.941 248.166 649.75 247.161 649.381 246.286C649.025 245.411 648.478 244.728 647.74 244.235C647.015 243.743 646.086 243.497 644.951 243.497ZM683.662 239.867C686.204 239.867 688.119 240.523 689.404 241.836C690.703 243.148 691.352 245.254 691.352 248.152V263H686.533V249.014C686.533 247.291 686.198 245.992 685.528 245.117C684.858 244.242 683.839 243.805 682.472 243.805C680.558 243.805 679.177 244.42 678.329 245.65C677.496 246.867 677.079 248.638 677.079 250.962V263H672.259V249.014C672.259 247.865 672.109 246.908 671.808 246.143C671.521 245.363 671.077 244.782 670.475 244.399C669.873 244.003 669.115 243.805 668.199 243.805C666.872 243.805 665.813 244.105 665.02 244.707C664.241 245.309 663.68 246.197 663.338 247.373C662.996 248.535 662.826 249.964 662.826 251.659V263H658.006V240.298H661.759L662.436 243.354H662.703C663.167 242.561 663.742 241.911 664.425 241.405C665.122 240.886 665.895 240.503 666.743 240.257C667.59 239.997 668.472 239.867 669.388 239.867C671.083 239.867 672.512 240.168 673.674 240.77C674.836 241.357 675.704 242.26 676.279 243.477H676.648C677.359 242.246 678.35 241.337 679.621 240.749C680.893 240.161 682.24 239.867 683.662 239.867ZM711.236 256.52C711.236 258.01 710.874 259.268 710.149 260.293C709.425 261.318 708.365 262.098 706.971 262.631C705.59 263.15 703.895 263.41 701.885 263.41C700.299 263.41 698.932 263.294 697.783 263.062C696.648 262.843 695.575 262.501 694.563 262.036V257.873C695.644 258.379 696.854 258.816 698.193 259.186C699.547 259.555 700.825 259.739 702.028 259.739C703.614 259.739 704.756 259.493 705.453 259.001C706.15 258.495 706.499 257.825 706.499 256.991C706.499 256.499 706.355 256.062 706.068 255.679C705.795 255.282 705.275 254.879 704.51 254.469C703.758 254.045 702.65 253.539 701.188 252.951C699.752 252.377 698.542 251.803 697.558 251.229C696.573 250.654 695.828 249.964 695.322 249.157C694.816 248.337 694.563 247.291 694.563 246.02C694.563 244.01 695.356 242.485 696.942 241.446C698.542 240.394 700.654 239.867 703.279 239.867C704.674 239.867 705.986 240.011 707.217 240.298C708.461 240.571 709.678 240.975 710.867 241.508L709.35 245.138C708.324 244.687 707.292 244.317 706.253 244.03C705.228 243.729 704.182 243.579 703.115 243.579C701.871 243.579 700.921 243.771 700.265 244.153C699.622 244.536 699.301 245.083 699.301 245.794C699.301 246.327 699.458 246.778 699.772 247.147C700.087 247.517 700.627 247.886 701.393 248.255C702.172 248.624 703.252 249.082 704.633 249.629C705.986 250.148 707.155 250.695 708.14 251.27C709.138 251.83 709.903 252.521 710.437 253.341C710.97 254.161 711.236 255.221 711.236 256.52Z" fill="#111827"/>
</g>
<defs>
<clipPath id="clip0_1150_39">
<rect width="300.221" height="750" fill="white" transform="translate(1.01221 300.276) rotate(-90.0049)"/>
</clipPath>
</defs>
</svg>
