<svg width="641" height="181" viewBox="0 0 641 181" fill="none" xmlns="http://www.w3.org/2000/svg">
<g clip-path="url(#clip0_353_14)">
<rect width="180" height="640" transform="translate(0.0214844 180.067) rotate(-90.0049)" fill="#1D1D1D"/>
<g clip-path="url(#clip1_353_14)">
<path d="M79.1004 159.949L34.5827 42.6354L33.8575 42.6353C34.0994 45.1132 34.3111 48.1351 34.4926 51.7008C34.6741 55.2666 34.8254 59.1648 34.9465 63.3953C35.0676 67.5654 35.1283 71.8262 35.1285 76.1776L35.133 159.942L20.8097 159.94L20.8025 27.4035L43.6474 27.4068L85.6263 137.649L86.2609 137.649L128.862 27.4193L151.526 27.4226L151.533 159.959L136.303 159.957L136.299 75.1045C136.298 71.1762 136.359 67.2478 136.479 63.3195C136.6 59.3307 136.751 55.5837 136.932 52.0784C137.113 48.5127 137.294 45.4305 137.475 42.8318L136.75 42.8317L91.7013 159.95L79.1004 159.949ZM280.462 93.5284C280.462 103.742 279.163 113.049 276.565 121.449C273.967 129.789 270.099 136.981 264.963 143.023C259.886 149.006 253.571 153.628 246.017 156.891C238.462 160.153 229.699 161.784 219.727 161.782C209.453 161.781 200.478 160.148 192.802 156.883C185.187 153.618 178.841 148.964 173.764 142.919C168.748 136.875 164.97 129.652 162.431 121.251C159.953 112.85 158.714 103.543 158.713 93.3293C158.712 79.7916 160.948 67.9162 165.419 57.7032C169.891 47.4901 176.66 39.5437 185.725 33.8641C194.85 28.1844 206.273 25.3456 219.992 25.3476C233.106 25.3495 244.136 28.1614 253.081 33.7832C262.086 39.4051 268.886 47.3233 273.479 57.5377C278.134 67.6916 280.461 79.6885 280.462 93.5284ZM174.94 93.513C174.941 104.754 176.543 114.485 179.746 122.704C182.95 130.924 187.846 137.271 194.433 141.744C201.082 146.217 209.513 148.455 219.726 148.456C230 148.458 238.401 146.223 244.928 141.751C251.515 137.28 256.38 130.935 259.522 122.716C262.664 114.497 264.235 104.767 264.235 93.5261C264.234 76.4226 260.637 63.0657 253.445 53.4553C246.313 43.7845 235.162 38.9479 219.992 38.9457C209.718 38.9442 201.257 41.1489 194.609 45.5598C187.962 49.9706 183.006 56.2553 179.743 64.4137C176.541 72.5117 174.939 82.2114 174.94 93.513ZM391.357 159.994L373.589 159.992L301.332 48.6576L300.606 48.6575C300.788 51.6189 300.999 55.0034 301.241 58.8109C301.483 62.558 301.665 66.577 301.786 70.868C301.968 75.0985 302.058 79.4197 302.059 83.8316L302.063 159.981L287.739 159.979L287.732 27.4425L305.41 27.4451L377.395 138.416L378.03 138.417C377.909 136.301 377.758 133.31 377.576 129.442C377.395 125.513 377.213 121.313 377.032 116.841C376.91 112.308 376.85 108.108 376.85 104.24L376.845 27.4555L391.35 27.4577L391.357 159.994ZM618.831 92.49C618.831 107.418 616.112 119.897 610.674 129.929C605.235 139.9 597.349 147.423 587.014 152.499C576.74 157.513 564.26 160.02 549.574 160.017L513.585 160.012L513.577 27.4755L553.556 27.4814C567.033 27.4833 578.637 29.9629 588.368 34.9201C598.098 39.8169 605.593 47.1005 610.851 56.7711C616.17 66.3812 618.83 78.2875 618.831 92.49ZM602.604 93.0316C602.603 81.1257 600.608 71.3045 596.619 63.5681C592.69 55.8317 586.888 50.0894 579.212 46.3412C571.597 42.5326 562.26 40.6275 551.2 40.6259L528.989 40.6227L528.995 146.779L547.761 146.782C566.012 146.784 579.701 142.284 588.826 133.28C598.012 124.276 602.605 110.86 602.604 93.0316Z" fill="white"/>
<path d="M460.215 27.4677L508.178 160.011L491.951 160.009L461.396 73.9736C460.126 70.2868 458.917 66.7208 457.769 63.2758C456.621 59.8308 455.563 56.5369 454.596 53.394C453.628 50.1908 452.752 47.1688 451.966 44.3282C451.362 47.1686 450.607 50.1903 449.7 53.3933C448.794 56.5359 447.767 59.8295 446.619 63.2742C445.47 66.6584 444.262 70.1636 442.993 73.7896L412.719 159.997L396.401 159.995L444.169 27.4654L460.215 27.4677Z" fill="#30D5C8"/>
<mask id="path-2-outside-1_353_14" maskUnits="userSpaceOnUse" x="200.486" y="71.9971" width="38" height="44" fill="black">
<rect fill="white" x="200.486" y="71.9971" width="38" height="44"/>
<path d="M205.616 94.1877C205.616 90.5615 206.16 87.5699 207.248 85.2129C208.396 82.7954 209.998 80.9823 212.052 79.7736C214.107 78.5649 216.585 77.9605 219.486 77.9605C222.387 77.9605 224.865 78.5951 226.92 79.8643C229.035 81.073 230.637 82.8861 231.724 85.3035C232.873 87.721 233.447 90.6824 233.447 94.1877C233.447 97.5721 232.873 100.503 231.724 102.981C230.637 105.399 229.035 107.272 226.92 108.602C224.865 109.871 222.387 110.505 219.486 110.505C216.585 110.505 214.107 109.871 212.052 108.602C209.998 107.333 208.396 105.489 207.248 103.072C206.16 100.654 205.616 97.693 205.616 94.1877Z"/>
</mask>
<path d="M205.616 94.1877C205.616 90.5615 206.16 87.5699 207.248 85.2129C208.396 82.7954 209.998 80.9823 212.052 79.7736C214.107 78.5649 216.585 77.9605 219.486 77.9605C222.387 77.9605 224.865 78.5951 226.92 79.8643C229.035 81.073 230.637 82.8861 231.724 85.3035C232.873 87.721 233.447 90.6824 233.447 94.1877C233.447 97.5721 232.873 100.503 231.724 102.981C230.637 105.399 229.035 107.272 226.92 108.602C224.865 109.871 222.387 110.505 219.486 110.505C216.585 110.505 214.107 109.871 212.052 108.602C209.998 107.333 208.396 105.489 207.248 103.072C206.16 100.654 205.616 97.693 205.616 94.1877Z" fill="white"/>
<path d="M207.248 85.2129L202.731 83.0676L202.72 83.0925L202.708 83.1176L207.248 85.2129ZM226.92 79.8643L224.292 84.1183L224.365 84.1631L224.439 84.2055L226.92 79.8643ZM231.724 85.3035L227.165 87.3554L227.186 87.4023L227.208 87.4488L231.724 85.3035ZM231.724 102.981L227.188 100.879L227.176 100.904L227.165 100.929L231.724 102.981ZM226.92 108.602L229.547 112.856L229.564 112.845L229.581 112.835L226.92 108.602ZM207.248 103.072L202.688 105.124L202.709 105.171L202.731 105.217L207.248 103.072ZM210.616 94.1877C210.616 91.0164 211.098 88.8017 211.788 87.3082L202.708 83.1176C201.222 86.3381 200.616 90.1066 200.616 94.1877L210.616 94.1877ZM211.764 87.3582C212.538 85.7292 213.498 84.7241 214.588 84.0833L209.517 75.464C206.497 77.2406 204.254 79.8617 202.731 83.0676L211.764 87.3582ZM214.588 84.0833C215.723 83.4153 217.284 82.9605 219.486 82.9605L219.486 72.9605C215.887 72.9605 212.491 73.7145 209.517 75.464L214.588 84.0833ZM219.486 82.9605C221.647 82.9605 223.173 83.4269 224.292 84.1183L229.547 75.6103C226.557 73.7633 223.127 72.9605 219.486 72.9605L219.486 82.9605ZM224.439 84.2055C225.555 84.8432 226.47 85.812 227.165 87.3554L236.284 83.2517C234.803 79.9602 232.515 77.3028 229.4 75.5231L224.439 84.2055ZM227.208 87.4488C227.955 89.0219 228.447 91.2041 228.447 94.1877L238.447 94.1877C238.447 90.1606 237.79 86.4201 236.241 83.1582L227.208 87.4488ZM228.447 94.1877C228.447 97.0153 227.967 99.1978 227.188 100.879L236.261 105.083C237.779 101.809 238.447 98.1289 238.447 94.1877L228.447 94.1877ZM227.165 100.929C226.455 102.506 225.488 103.596 224.259 104.369L229.581 112.835C232.582 110.948 234.818 108.291 236.284 105.033L227.165 100.929ZM224.292 104.348C223.173 105.039 221.647 105.505 219.486 105.505L219.486 115.505C223.127 115.505 226.557 114.703 229.547 112.856L224.292 104.348ZM219.486 105.505C217.325 105.505 215.799 105.039 214.68 104.348L209.425 112.856C212.415 114.703 215.845 115.505 219.486 115.505L219.486 105.505ZM214.68 104.348C213.532 103.639 212.545 102.571 211.764 100.926L202.731 105.217C204.247 108.407 206.463 111.026 209.425 112.856L214.68 104.348ZM211.807 101.02C211.087 99.4199 210.616 97.2027 210.616 94.1877L200.616 94.1877C200.616 98.1833 201.232 101.889 202.688 105.124L211.807 101.02Z" fill="#1D1D1D" mask="url(#path-2-outside-1_353_14)"/>
</g>
</g>
<defs>
<clipPath id="clip0_353_14">
<rect width="180" height="640" fill="white" transform="translate(0.0214844 180.067) rotate(-90.0049)"/>
</clipPath>
<clipPath id="clip1_353_14">
<rect width="180" height="600" fill="white" transform="translate(20 180) rotate(-90.0049)"/>
</clipPath>
</defs>
</svg>
