<svg width="99" height="18" viewBox="0 0 99 18" fill="none" xmlns="http://www.w3.org/2000/svg">
<path d="M6.732 4.74219H0V7.16154H3.564V13.1615H0V15.5809H9.999V13.1615H6.732V4.74219Z" fill="white"/>
<path d="M18.5136 6.67742H18.3156C18.2166 6.3871 18.0186 6.09677 17.8206 5.80645C17.6226 5.51613 17.4246 5.32258 17.1276 5.12903C16.8306 4.93548 16.5336 4.74194 16.2366 4.64516C15.9396 4.54839 15.5436 4.45161 15.0486 4.45161C14.4546 4.45161 13.8606 4.54839 13.3656 4.74194C12.8706 4.93548 12.3756 5.32258 12.0786 5.80645C11.6826 6.29032 11.3856 6.87097 11.1876 7.54839C10.9896 8.32258 10.8906 9.19355 10.8906 10.1613C10.8906 11.129 10.9896 12 11.1876 12.6774C11.3856 13.3548 11.6826 13.9355 12.0786 14.4194C12.4746 14.9032 12.8706 15.1935 13.3656 15.4839C13.8606 15.6774 14.4546 15.7742 15.0486 15.7742C15.9396 15.7742 16.6326 15.5806 17.1276 15.1935C17.6226 14.8065 18.0186 14.2258 18.3156 13.5484H18.5136V15.5806H21.6816V0H18.5136V6.67742ZM18.5136 11.7097C18.5136 12.2903 18.3156 12.6774 17.9196 12.9677C17.5236 13.2581 17.0286 13.3548 16.4346 13.3548C15.7416 13.3548 15.1476 13.1613 14.7516 12.6774C14.3556 12.2903 14.1576 11.7097 14.1576 10.9355V9.29032C14.1576 8.51613 14.3556 7.93548 14.7516 7.54839C15.1476 7.16129 15.6426 6.87097 16.4346 6.87097C17.0286 6.87097 17.5236 6.96774 17.9196 7.25806C18.3156 7.54839 18.5136 7.93548 18.5136 8.51613V11.7097Z" fill="white"/>
<path d="M32.9663 5.99956C32.4713 5.51569 31.8773 5.12859 31.1843 4.83827C30.4913 4.54795 29.6993 4.45117 28.9073 4.45117C28.1153 4.45117 27.3233 4.54795 26.6303 4.83827C25.9373 5.12859 25.3433 5.51569 24.8483 5.99956C24.3533 6.48343 23.9573 7.06408 23.7593 7.74149C23.4623 8.41891 23.3633 9.19311 23.3633 10.1608C23.3633 11.0318 23.4623 11.806 23.7593 12.5802C24.0563 13.2576 24.3533 13.8383 24.8483 14.3221C25.3433 14.806 25.9373 15.1931 26.6303 15.4834C27.3233 15.7738 28.1153 15.8705 28.9073 15.8705C29.6993 15.8705 30.5903 15.7738 31.1843 15.4834C31.8773 15.1931 32.4713 14.806 32.9663 14.3221C33.4613 13.8383 33.8573 13.2576 34.0553 12.5802C34.3523 11.9028 34.4513 11.1286 34.4513 10.1608C34.4513 9.28988 34.3523 8.51569 34.0553 7.74149C33.8573 7.06408 33.4613 6.48343 32.9663 5.99956ZM31.1843 11.0318C31.1843 11.806 30.9863 12.4834 30.5903 12.8705C30.1943 13.2576 29.6003 13.5479 28.9073 13.5479C28.2143 13.5479 27.6203 13.3544 27.2243 12.8705C26.8283 12.4834 26.6303 11.806 26.6303 11.0318V9.28988C26.6303 8.51569 26.8283 7.83827 27.2243 7.45117C27.6203 7.06407 28.2143 6.77375 28.9073 6.77375C29.6003 6.77375 30.1943 6.9673 30.5903 7.45117C30.9863 7.83827 31.1843 8.51569 31.1843 9.28988V11.0318Z" fill="white"/>
<path d="M75.1421 5.99956C74.6471 5.51569 74.0531 5.12859 73.3601 4.83827C72.6671 4.54795 71.8751 4.45117 71.0831 4.45117C70.1921 4.45117 69.4001 4.54795 68.8061 4.83827C68.1131 5.12859 67.5191 5.51569 67.0241 5.99956C66.5291 6.48343 66.1331 7.06408 65.9351 7.74149C65.6381 8.41891 65.5391 9.19311 65.5391 10.1608C65.5391 11.0318 65.6381 11.806 65.9351 12.5802C66.2321 13.2576 66.5291 13.8383 67.0241 14.3221C67.5191 14.806 68.1131 15.1931 68.8061 15.4834C69.4991 15.7738 70.2911 15.8705 71.0831 15.8705C71.9741 15.8705 72.7661 15.7738 73.3601 15.4834C74.0531 15.1931 74.6471 14.806 75.1421 14.3221C75.6371 13.8383 76.0331 13.2576 76.2311 12.5802C76.5281 11.9028 76.6271 11.1286 76.6271 10.1608C76.6271 9.28988 76.5281 8.51569 76.2311 7.74149C75.9341 6.9673 75.6371 6.48343 75.1421 5.99956ZM73.3601 11.0318C73.3601 11.806 73.1621 12.4834 72.7661 12.8705C72.3701 13.2576 71.7761 13.5479 71.0831 13.5479C70.3901 13.5479 69.7961 13.3544 69.4001 12.8705C69.0041 12.4834 68.8061 11.806 68.8061 11.0318V9.28988C68.8061 8.51569 69.0041 7.83827 69.4001 7.45117C69.7961 6.9673 70.2911 6.77375 71.0831 6.77375C71.7761 6.77375 72.3701 6.9673 72.7661 7.45117C73.1621 7.93504 73.3601 8.51569 73.3601 9.28988V11.0318Z" fill="white"/>
<path d="M84.5471 4.74194V2.41935H88.5071L90.3881 0H84.7451C83.5571 0 82.7651 0.290323 82.1711 0.870968C81.5771 1.45161 81.3791 2.22581 81.3791 3.09677V4.64516H77.9141V7.06452H81.3791V13.0645H78.1121V15.4839H88.0121V13.0645H84.5471V7.16129H88.5071V4.74194H84.5471Z" fill="white"/>
<path d="M98.9992 7.16129V4.74194H94.6432V0L88.4062 7.16129H91.3763V12.4839C91.3763 13.3548 91.6732 14.129 92.1682 14.7097C92.7622 15.2903 93.5542 15.5806 94.7422 15.5806H98.9002V13.1613H94.5442V7.16129H98.9992Z" fill="white"/>
<path d="M49.0067 4.54883C48.6107 4.54883 48.2147 4.6456 47.8187 4.74238C47.4227 4.83915 47.1257 5.0327 46.8287 5.22625C46.5317 5.4198 46.2347 5.61334 46.0367 5.90367C45.8387 6.19399 45.6407 6.48431 45.5417 6.77464C45.3437 6.09722 44.9477 5.51657 44.3537 5.12947C43.8587 4.74238 43.1657 4.54883 42.3737 4.54883C41.5817 4.54883 40.8887 4.74238 40.3937 5.12947C39.8987 5.51657 39.6017 6.00044 39.4037 6.58109H39.3047V4.83915H36.1367V15.6779H39.3047V8.61334C39.3047 8.32302 39.4037 8.12947 39.5027 7.93593C39.6017 7.74238 39.7007 7.54883 39.8987 7.45205C40.0967 7.35528 40.2947 7.25851 40.4927 7.16173C40.6907 7.06496 40.8887 7.06496 41.1857 7.06496C42.1757 7.06496 42.6707 7.74238 42.6707 9.09722V15.6779H45.8387V8.61334C45.8387 8.0327 46.0367 7.6456 46.4327 7.45205C46.8287 7.25851 47.2247 7.06496 47.7197 7.06496C48.7097 7.06496 49.2047 7.74238 49.2047 9.09722V15.6779H52.3727V8.90367C52.3727 7.54883 52.0757 6.48431 51.4817 5.71012C50.8877 4.93593 50.0957 4.54883 49.0067 4.54883Z" fill="white"/>
<path d="M54.1523 10.8383L57.5183 11.7093L61.8743 12.8706V13.0641L54.1523 15.0964V17.9996L63.8543 15.3867V10.548L60.5873 9.67704L56.1323 8.51575V8.3222L63.8543 6.28995V3.38672L54.1523 6.0964V10.8383Z" fill="white"/>
</svg>
