<svg width="641" height="181" viewBox="0 0 641 181" fill="none" xmlns="http://www.w3.org/2000/svg">
<g clip-path="url(#clip0_353_14)">
<rect width="180" height="640" transform="translate(0.0214844 180.067) rotate(-90.0049)" fill="#1D1D1D"/>
<g clip-path="url(#clip1_353_14)">
<path d="M79.1004 155.949L34.5827 38.6354L33.8575 38.6353C34.0994 41.1132 34.3111 44.1351 34.4926 47.7008C34.6741 51.2666 34.8254 55.1648 34.9465 59.3953C35.0676 63.5654 35.1283 67.8262 35.1285 72.1776L35.133 155.942L20.8097 155.94L20.8025 23.4035L43.6474 23.4068L85.6263 133.649L86.2609 133.649L128.862 23.4193L151.526 23.4226L151.533 155.959L136.303 155.957L136.299 71.1045C136.298 67.1762 136.359 63.2478 136.479 59.3195C136.6 55.3307 136.751 51.5837 136.932 48.0784C137.113 44.5127 137.294 41.4305 137.475 38.8318L136.75 38.8317L91.7013 155.95L79.1004 155.949ZM280.462 89.5284C280.462 99.7422 279.163 109.049 276.565 117.449C273.967 125.789 270.099 132.981 264.963 139.023C259.886 145.006 253.571 149.628 246.017 152.891C238.462 156.153 229.699 157.784 219.727 157.782C209.453 157.781 200.478 156.148 192.802 152.883C185.187 149.618 178.841 144.964 173.764 138.919C168.748 132.875 164.97 125.652 162.431 117.251C159.953 108.85 158.714 99.543 158.713 89.3293C158.712 75.7916 160.948 63.9162 165.419 53.7032C169.891 43.4901 176.66 35.5437 185.725 29.8641C194.85 24.1844 206.273 21.3456 219.992 21.3476C233.106 21.3495 244.136 24.1614 253.081 29.7832C262.086 35.4051 268.886 43.3233 273.479 53.5377C278.134 63.6916 280.461 75.6885 280.462 89.5284ZM174.94 89.513C174.941 100.754 176.543 110.485 179.746 118.704C182.95 126.924 187.846 133.271 194.433 137.744C201.082 142.217 209.513 144.455 219.726 144.456C230 144.458 238.401 142.223 244.928 137.751C251.515 133.28 256.38 126.935 259.522 118.716C262.664 110.497 264.235 100.767 264.235 89.5261C264.234 72.4226 260.637 59.0657 253.445 49.4553C246.313 39.7845 235.162 34.9479 219.992 34.9457C209.718 34.9442 201.257 37.1489 194.609 41.5598C187.962 45.9706 183.006 52.2553 179.743 60.4137C176.541 68.5117 174.939 78.2114 174.94 89.513ZM391.357 155.994L373.589 155.992L301.332 44.6576L300.606 44.6575C300.788 47.6189 300.999 51.0034 301.241 54.8109C301.483 58.558 301.665 62.577 301.786 66.868C301.968 71.0985 302.058 75.4197 302.059 79.8316L302.063 155.981L287.739 155.979L287.732 23.4425L305.41 23.4451L377.395 134.416L378.03 134.417C377.909 132.301 377.758 129.31 377.576 125.442C377.395 121.513 377.213 117.313 377.032 112.841C376.91 108.308 376.85 104.108 376.85 100.24L376.845 23.4555L391.35 23.4577L391.357 155.994ZM460.215 23.4677L508.178 156.011L491.951 156.009L461.396 69.9736C460.126 66.2868 458.917 62.7208 457.769 59.2758C456.621 55.8308 455.563 52.5369 454.596 49.394C453.628 46.1908 452.752 43.1688 451.966 40.3282C451.362 43.1686 450.607 46.1903 449.7 49.3933C448.794 52.5359 447.767 55.8295 446.619 59.2742C445.47 62.6584 444.262 66.1636 442.993 69.7896L412.719 155.997L396.401 155.995L444.169 23.4654L460.215 23.4677ZM618.831 88.49C618.831 103.418 616.112 115.897 610.674 125.929C605.235 135.9 597.349 143.423 587.014 148.499C576.74 153.513 564.26 156.02 549.574 156.017L513.585 156.012L513.577 23.4755L553.556 23.4814C567.033 23.4833 578.637 25.9629 588.368 30.9201C598.098 35.8169 605.593 43.1005 610.851 52.7711C616.17 62.3812 618.83 74.2875 618.831 88.49ZM602.604 89.0316C602.603 77.1257 600.608 67.3045 596.619 59.5681C592.69 51.8317 586.888 46.0894 579.212 42.3412C571.597 38.5326 562.26 36.6275 551.2 36.6259L528.989 36.6227L528.995 142.779L547.761 142.782C566.012 142.784 579.701 138.284 588.826 129.28C598.012 120.276 602.605 106.86 602.604 89.0316Z" fill="white"/>
<path d="M205.616 90.1877C205.616 86.5615 206.16 83.5699 207.248 81.2129C208.396 78.7954 209.998 76.9823 212.052 75.7736C214.107 74.5649 216.585 73.9605 219.486 73.9605C222.387 73.9605 224.865 74.5951 226.92 75.8643C229.035 77.073 230.637 78.8861 231.724 81.3035C232.873 83.721 233.447 86.6824 233.447 90.1877C233.447 93.5721 232.873 96.5032 231.724 98.9811C230.637 101.399 229.035 103.272 226.92 104.602C224.865 105.871 222.387 106.505 219.486 106.505C216.585 106.505 214.107 105.871 212.052 104.602C209.998 103.333 208.396 101.489 207.248 99.0718C206.16 96.6543 205.616 93.693 205.616 90.1877Z" fill="white"/>
</g>
</g>
<defs>
<clipPath id="clip0_353_14">
<rect width="180" height="640" fill="white" transform="translate(0.0214844 180.067) rotate(-90.0049)"/>
</clipPath>
<clipPath id="clip1_353_14">
<rect width="180" height="600" fill="white" transform="translate(20 176) rotate(-90.0049)"/>
</clipPath>
</defs>
</svg>
